<svg width="12" height="7" viewBox="0 0 12 7" fill="none" xmlns="http://www.w3.org/2000/svg">
<path d="M5.4481 6.41218L0.138095 0.839176C0.0494507 0.746187 0 0.622646 0 0.494175C0 0.365705 0.0494507 0.242164 0.138095 0.149176L0.144095 0.143176C0.187069 0.0979405 0.238795 0.061921 0.296128 0.0373073C0.353461 0.0126935 0.415202 4.76837e-07 0.477595 4.76837e-07C0.539989 4.76837e-07 0.60173 0.0126935 0.659063 0.0373073C0.716396 0.061921 0.768122 0.0979405 0.811095 0.143176L5.8111 5.39118L10.8091 0.143176C10.8521 0.0979405 10.9038 0.061921 10.9611 0.0373073C11.0185 0.0126935 11.0802 4.76837e-07 11.1426 4.76837e-07C11.205 4.76837e-07 11.2667 0.0126935 11.3241 0.0373073C11.3814 0.061921 11.4331 0.0979405 11.4761 0.143176L11.4821 0.149176C11.5707 0.242164 11.6202 0.365705 11.6202 0.494175C11.6202 0.622646 11.5707 0.746187 11.4821 0.839176L6.1721 6.41218C6.1254 6.46119 6.06923 6.50021 6.00701 6.52687C5.94478 6.55353 5.87779 6.56728 5.8101 6.56728C5.7424 6.56728 5.67541 6.55353 5.61318 6.52687C5.55096 6.50021 5.49479 6.46119 5.4481 6.41218Z" fill="#AEAEAE"/>
</svg>
