<svg width="573" height="127" viewBox="0 0 573 127" fill="none" xmlns="http://www.w3.org/2000/svg">
<path d="M20.2482 -32.3962C18.8454 -31.8588 14.6265 -29.3347 10.7332 -25.9856C5.59293 -21.5638 -14.9917 -27.2938 -21.5 -21.8113C-25.3817 -18.5415 -21.729 -0.381007 -29.8069 6.45846C-43.6465 18.1764 -54.2044 26.0378 -56.8379 28.4696C-65.0798 36.0802 -69.8995 40.1455 -87.8444 58.9025C-91.666 62.897 -92.3121 63.8448 -91.886 64.3958C-90.5678 66.1001 -86.8704 64.9522 -65.5378 57.2442C-45.5573 50.0249 -7.172 35.5642 13.6737 27.9132C36.5447 19.5189 44.3652 16.8425 53.7955 13.0455C64.5034 8.73414 78.7516 4.17863 88.2401 0.275791C96.9016 -3.28687 105.431 -6.68851 112.503 -9.76626C117.362 -11.8809 128.68 -16.9748 142.345 -23.5755C152.26 -28.3649 159.413 -31.2889 165.8 -33.566C167.045 -34.0097 168.264 -34.5566 169.418 -34.923C170.572 -35.2894 171.62 -35.4685 149.8 -7.52715C127.981 20.4143 30.87 127.187 6.52275 158.399C-17.8245 189.611 16.1287 154.332 30.4222 146.41C40.5963 140.771 19.9041 158.027 20.2482 158.399C20.5922 158.771 30.2846 150.717 47.0702 142.385C63.8558 134.053 96.3471 117.573 114.046 108.367C131.744 99.1604 133.666 97.7274 155.181 82.5693C176.697 67.4112 217.747 38.5714 240.03 23.0876C262.313 7.60378 264.584 6.34987 270.296 2.74831C296.508 -13.7801 303.586 -19.7052 308.464 -21.8113C312.787 -23.6779 309.981 -11.2482 307.263 -3.85503C305.699 0.39874 302.104 7.44638 291.311 24.0348C280.517 40.6232 262.35 66.4178 252.118 80.6911C240.355 97.0999 236.942 101.114 231.069 108.581C211.648 133.271 206.599 136.94 203.852 140.659C202.647 142.289 201.29 143.829 201.195 145.007C201.044 146.874 206.033 143.666 212.433 140.607C217.208 138.325 225.296 135.04 259.132 116.897C292.968 98.7533 352.36 65.9727 384.354 48.1005C416.348 30.2283 419.143 28.2579 422.067 26.5263C434.884 18.9381 444.599 14.4704 446.272 14.2859C447.084 14.1962 447.77 15.1761 447.78 17.3365C447.833 28.065 443.207 34.3266 440.647 41.5813C440.009 43.391 439.501 45.3674 433.816 56.772C428.131 68.1765 417.301 88.9554 405.957 108.258C394.613 127.56 383.084 144.757 376.533 154.332C362.627 174.659 351.799 191.054 351.707 191.963C351.68 192.225 352.837 191.081 354.946 189.276C357.056 187.471 360.375 184.784 393.615 155.904C426.855 127.023 489.422 98.4356 526.158 68.3723C562.4 38.7141 579.347 26.7695 583.828 24.1016C592.189 19.1237 586.168 24.3784 587.931 24.1016C588.68 23.9838 569.983 38.7684 569.988 39.8595C569.999 42.0538 587.422 31.5924 583.828 39.8595C576.246 57.2988 571.838 69.8542 569.988 73.5562C568.456 76.6215 562.532 87.8702 553.713 103.332C548.117 113.145 540.66 124.782 534.961 133.456C532.125 137.773 528.442 142.944 524.642 147.84C520.491 153.095 517.665 155.993 516.257 157.527C515.547 158.344 482.404 202.95 481.684 203.873" stroke="#DEEEFF" stroke-width="39" stroke-linecap="round"/>
</svg>
