<svg width="33" height="47" viewBox="0 0 33 47" fill="none" xmlns="http://www.w3.org/2000/svg">
<path d="M10.7874 23.6271C10.1166 23.7989 9.1107 25.1648 8.26274 26.8137C7.41206 28.4678 6.57038 30.1235 6.19072 32.2083C5.89708 33.2468 5.94999 36.1844 5.80849 40.0413C5.7618 41.3137 5.60064 44.9244 5.77277 45.6271M20.5351 21.9447C21.1293 22.2828 22.323 23.8146 23.094 25.5243C23.8646 27.2331 24.8844 29.2756 25.868 31.2018C26.816 33.0581 26.5955 35.254 26.9374 37.3058C27.1949 39.5265 27.2794 41.4912 27.4074 42.8103C27.451 43.5378 27.451 44.3831 27.451 45.254M13.3845 23.9388L13.3667 23.9344C13.0428 23.8538 12.496 23.7177 11.8838 23.4478M11.8838 23.4478C11.1902 23.1421 10.4128 22.6647 9.78082 21.9019C8.53564 20.3989 8.32716 18.3197 8.40913 16.0977C8.48543 14.0294 11.3907 13.6169 13.7357 13.2301C15.8704 12.878 17.6278 13.5247 18.4372 14.206C19.9422 15.4729 20.7861 17.3617 21.26 19.3264C21.3812 19.8287 21.3035 20.3484 21.0922 20.7365C20.1641 22.4409 17.8968 23.0021 16.1447 23.6437C15.6734 23.7731 15.1667 23.8653 14.4823 23.9012C13.7627 23.9388 12.7547 23.4478 11.8838 23.4478ZM24.4018 19.955C24.0612 19.1917 23.805 17.6548 23.7615 17.0977C23.9715 17.4704 24.3993 18.3285 24.9526 19.1379C25.2522 19.5247 25.5903 19.8627 26.1947 20.4671M24.1457 17.9059C24.1457 17.7368 24.1457 17.058 23.9766 15.9925C23.6877 14.1711 21.1641 13.6436 20.3484 11.9787C19.9077 11.0792 20.0473 9.63235 20.2587 8.22483C20.3479 7.63084 20.8927 7.409 21.7443 7.27837C23.8434 6.95641 25.5084 7.48585 26.1897 8.1672C26.8711 8.84855 27.473 9.61954 27.8572 10.6403C27.7343 13.2056 26.8813 14.4018 26.1577 15.1254C25.7722 15.5109 25.3496 15.9335 24.9142 17.6497M19.0228 6.89159C19.0228 6.80706 19.0228 6.72253 18.8537 6.50993C18.6847 6.29733 18.3465 5.95921 17.9982 4.84242M22.0966 4.84243C22.1811 4.84243 22.2656 4.84243 22.3514 4.50432C22.4372 4.1662 22.5217 3.48998 22.6075 2.88804C22.6933 2.2861 22.7779 1.77893 23.1211 1.00024M27.2627 5.31367C27.3473 5.31367 28.4131 4.33012 28.6257 4.16107C28.8383 3.99201 29.1764 3.6539 29.7809 2.79326M30.2932 8.17232L31.8301 7.66002M20.5597 11.7584C20.4751 11.7584 20.3906 11.7584 20.1358 11.6738C19.8809 11.5893 19.4582 11.4202 17.9982 11.2461M25.1703 16.6251C25.1703 17.3884 25.1703 18.9253 25.2125 19.3979C25.2695 20.0343 25.4264 17.3167 25.4264 16.6277C25.4264 16.4714 25.4264 17.9673 25.4687 18.3234C25.511 18.6794 25.5955 18.1722 25.6391 18.4181C25.6826 18.664 25.6826 19.6784 25.6826 20.7235M10.7875 17.0318C10.9186 16.9991 11.2476 16.8675 11.6271 16.7846C11.8245 16.7517 12.1213 16.7349 12.459 16.7512C12.6008 16.7676 12.6824 16.8002 12.7665 16.8833M15.5867 16.537C15.6846 16.4712 16.0795 16.3727 16.5329 16.298C16.9018 16.2896 17.2021 16.3386 17.3584 16.4455C17.4331 16.5034 17.4984 16.5687 17.6152 16.7349M13.1623 20.6435C13.3098 20.6272 14.1617 20.5941 14.7936 20.5448C15.1899 20.4788 15.5684 20.4456 15.8895 20.4375C16.031 20.4293 16.1289 20.413 16.2299 20.3961M10.1037 14.7017L10.163 14.8203M11.3487 14.6424L11.5858 14.761M12.6529 14.2274L13.0086 14.4646M14.1943 14.1089L14.4314 14.2867M15.0242 14.2274H15.2614M16.1506 14.1089L16.2692 14.2275M17.692 14.346H17.7513M7.91021 18.318C7.91021 18.3571 7.87109 18.4751 7.8118 18.7798C7.79165 18.9867 7.79165 19.2997 7.83077 19.5099C7.8699 19.7201 7.94815 19.8179 8.20663 20.1558M20.834 15.8874C20.8732 16.0445 21.07 16.4387 21.2484 16.8344C21.2881 16.9337 21.3273 17.0316 21.3572 17.1406C21.3871 17.2497 21.4067 17.3671 21.4269 17.488M7.91021 15.2945L7.96949 15.2353M8.38448 14.5239V14.6424M8.62161 14.346L8.74018 14.2274M9.15517 13.931C9.1943 13.9115 9.23343 13.8919 9.30249 13.8525C9.37156 13.8131 9.46937 13.7544 9.57016 13.6939M10.2223 13.4567L10.578 13.2789M11.1708 13.1011L11.4672 13.0418M11.8822 12.9825L12.2379 12.9232M12.9493 12.8046L13.1272 12.7454M13.6014 12.7454C13.621 12.7454 13.6406 12.7454 13.7093 12.7356C13.7781 12.7258 13.8955 12.7062 14.0164 12.6861M14.7278 12.6268L15.0835 12.5675M15.6171 12.5675H15.8726C15.9716 12.5675 16.089 12.5675 16.1983 12.5871C16.3077 12.6066 16.4055 12.6458 16.5063 12.6861M17.3956 12.8639H17.5527C17.6315 12.8639 17.7489 12.8639 17.9884 12.9825M18.7591 13.1603C18.7982 13.1799 18.8374 13.1995 18.9064 13.2389C18.9755 13.2783 19.0733 13.337 19.1741 13.3975M19.7076 13.8717L19.8855 14.0496M20.1226 14.2867L20.2412 14.4053M21.7627 22.8137C21.9666 22.9213 22.4273 23.355 22.8635 23.8118C23.391 24.3643 23.8627 24.7898 24.2997 25.2251C24.7157 25.6396 25.0427 26.0511 25.4023 26.4642C25.8014 26.9226 26.2227 27.268 26.5435 27.7033C26.8795 28.1594 27.2735 28.5724 27.6204 29.0077C27.9755 29.4533 28.3504 29.8337 28.6847 30.2468C28.9927 30.6822 29.1981 31.0082 29.3258 31.2251C29.4028 31.3343 29.5043 31.4419 29.7627 31.8137M29.7394 31.6286C29.7277 31.5234 29.7041 31.2418 29.6632 30.8831C29.5966 30.3006 29.5749 29.8539 29.5571 29.3011C29.5499 29.0768 29.5276 28.4455 29.5451 27.4764C29.5662 26.3082 29.6568 25.9358 29.6863 25.5417C29.7416 24.802 29.798 24.4766 29.8744 23.93C29.9275 23.4876 29.9628 23.2168 29.9863 23.0583C29.9981 22.9814 30.0098 22.9115 30.0218 22.7336M29.81 22.3453C29.7747 22.0298 29.8213 21.4643 29.9155 21.1816C30.0063 20.9093 30.0804 20.6525 30.1626 20.4048C30.244 20.1597 30.3861 20.0044 30.5149 19.9338C30.59 19.8926 30.7136 19.9098 30.7969 19.9331C31.0544 20.0051 31.092 20.344 31.1218 20.644C31.1655 21.083 31.1047 21.6733 30.9753 21.9795C30.9399 22.0506 30.9049 22.1088 30.8695 22.168C30.834 22.2271 30.799 22.2853 30.6924 22.4865M30.0571 18.0037C30.0687 18.3768 30.1157 19.2257 30.1628 19.5556C30.2216 19.8738 30.2922 20.1788 30.3921 20.5672C30.4101 20.662 30.4101 20.7435 30.4101 20.8275M30.9395 20.2275H31.2925M31.0454 21.7453C31.0571 21.7569 31.0687 21.7686 31.1213 21.7746C31.1739 21.7806 31.2671 21.7806 31.3631 21.7806M31.2925 20.8981H31.3984M10.2627 23.3137C10.2555 23.4366 9.85779 24.0204 9.76274 24.3137C9.63086 24.7206 8.83966 25.6442 8.76274 25.8137C8.66202 26.0356 8.08186 26.7952 8.00846 26.9731C7.92387 27.1782 7.80362 27.3815 7.66076 27.6295C7.48967 27.9264 7.37607 28.165 7.24381 28.4427L7.23582 28.4595C7.07457 28.7981 6.82296 29.2629 6.64967 29.6162C6.52305 29.8743 6.38252 30.1322 6.26153 30.3963C6.11163 30.7234 5.9067 31.1636 5.62219 31.8336C5.1689 32.901 4.93879 33.6599 4.88769 33.8164C4.77054 34.1751 4.67527 34.4853 4.60186 34.7704C4.50451 35.1485 4.39703 35.427 4.26505 35.8192C4.16161 36.1266 4.03835 36.5571 3.96439 36.8648C3.87671 37.2297 3.7667 37.6578 3.68977 37.9878C3.63458 38.2245 3.54692 38.5326 3.46637 38.7771C3.38191 39.0334 3.34912 39.2191 3.30868 39.4256C3.24511 39.7503 3.12933 40.2103 3.01955 40.7418C2.96802 41.0943 2.89505 41.4073 2.81065 41.6765C2.7922 41.7306 2.7777 41.7715 2.76276 41.8136M1.86684 42.1279C1.85322 42.1279 1.81214 42.1483 1.75714 42.2031C1.69578 42.2642 1.72236 42.416 1.77345 42.5398C1.78341 42.564 1.79515 42.584 1.80836 42.6004M1.80836 42.6004C1.94757 42.7733 2.25185 42.5447 2.40284 42.5133C2.49012 42.4952 2.55453 42.4309 2.60262 42.3691C2.62611 42.339 2.64115 42.3015 2.6519 42.2611M1.80836 42.6004C1.80939 42.595 1.81058 42.5897 1.81194 42.5845C1.86023 42.4024 1.87786 42.2276 1.98077 42.1067C2.00838 42.0743 2.038 42.0427 2.07381 42.0181M1.80836 42.6004C1.79676 42.6624 1.80658 42.7429 1.82536 42.7942C1.85898 42.8861 1.96281 42.9051 2.03484 42.9292C2.11139 42.9547 2.19665 42.9466 2.27219 42.9227C2.43719 42.8704 2.55412 42.6855 2.644 42.5584C2.69107 42.4918 2.67177 42.3898 2.66155 42.3005C2.65997 42.2867 2.65664 42.2736 2.6519 42.2611M2.6519 42.2611C2.66444 42.214 2.67112 42.1628 2.67857 42.1148C2.68494 42.0737 2.66516 42.0391 2.64111 42.0148C2.59235 41.9654 2.42533 41.9628 2.22255 41.9696C2.1614 41.9716 2.11375 41.9906 2.07381 42.0181M2.6519 42.2611C2.62878 42.2003 2.5721 42.1544 2.52089 42.1145C2.40129 42.0675 2.27803 42.0325 2.07381 42.0181M2.07381 42.0181C2.00774 42.0134 1.93319 42.0109 1.84754 42.0108C1.77087 42.0177 1.73681 42.0313 1.61917 42.066M1 42.8915H1.02064M2.09387 43.2836V43.4694M2.85751 43.0566H2.89508C2.91902 43.0566 2.95988 43.0566 3.08454 43.1185" stroke="#413B4A" stroke-width="2" stroke-linecap="round"/>
</svg>
