<svg width="82" height="26" viewBox="0 0 82 26" fill="none" xmlns="http://www.w3.org/2000/svg">
<rect x="0.5" y="0.5" width="81" height="25" rx="12.5" fill="#FDFEFF"/>
<rect x="0.5" y="0.5" width="81" height="25" rx="12.5" stroke="#292833"/>
<path d="M5.12 17V8.36H11.04V9.488H6.296V17H5.12ZM17.7175 17.24C16.9228 17.24 16.2508 17.04 15.7015 16.64C15.1522 16.2347 14.7362 15.688 14.4535 15C14.1708 14.3067 14.0295 13.5307 14.0295 12.672C14.0295 11.7973 14.1708 11.0187 14.4535 10.336C14.7415 9.648 15.1628 9.10667 15.7175 8.712C16.2722 8.31733 16.9548 8.12 17.7655 8.12C18.5548 8.12 19.2322 8.32 19.7975 8.72C20.3628 9.12 20.7948 9.664 21.0935 10.352C21.3975 11.04 21.5495 11.8133 21.5495 12.672C21.5495 13.536 21.3975 14.312 21.0935 15C20.7895 15.688 20.3522 16.2347 19.7815 16.64C19.2108 17.04 18.5228 17.24 17.7175 17.24ZM13.8295 20.84V8.36H14.8855V14.864H15.0135V20.84H13.8295ZM17.5975 16.144C18.2002 16.144 18.7015 15.992 19.1015 15.688C19.5015 15.384 19.8002 14.9707 19.9975 14.448C20.2002 13.92 20.3015 13.328 20.3015 12.672C20.3015 12.0213 20.2028 11.4347 20.0055 10.912C19.8082 10.3893 19.5068 9.976 19.1015 9.672C18.7015 9.368 18.1922 9.216 17.5735 9.216C16.9708 9.216 16.4695 9.36267 16.0695 9.656C15.6748 9.94933 15.3788 10.3573 15.1815 10.88C14.9842 11.3973 14.8855 11.9947 14.8855 12.672C14.8855 13.3387 14.9842 13.936 15.1815 14.464C15.3788 14.9867 15.6775 15.3973 16.0775 15.696C16.4775 15.9947 16.9842 16.144 17.5975 16.144ZM25.5057 20.84L27.1777 16.304L27.2017 17.648L23.4177 8.36H24.6657L27.7697 16.128H27.2577L30.1217 8.36H31.3217L26.6817 20.84H25.5057ZM33.9833 17V8.36H40.8553V17H39.6793V9.488H35.1593V17H33.9833ZM44.3726 17V8.36H51.2446V17H50.0686V9.488H45.5486V17H44.3726ZM57.242 17.24C56.5913 17.24 56.0447 17.1227 55.602 16.888C55.1647 16.6533 54.8367 16.3413 54.618 15.952C54.3993 15.5627 54.29 15.1387 54.29 14.68C54.29 14.2107 54.3833 13.8107 54.57 13.48C54.762 13.144 55.0207 12.8693 55.346 12.656C55.6767 12.4427 56.058 12.28 56.49 12.168C56.9273 12.0613 57.41 11.968 57.938 11.888C58.4713 11.8027 58.9913 11.7307 59.498 11.672C60.01 11.608 60.458 11.5467 60.842 11.488L60.426 11.744C60.442 10.8907 60.2767 10.2587 59.93 9.848C59.5833 9.43733 58.9807 9.232 58.122 9.232C57.53 9.232 57.0287 9.36533 56.618 9.632C56.2127 9.89867 55.9273 10.32 55.762 10.896L54.618 10.56C54.8153 9.78667 55.2127 9.18667 55.81 8.76C56.4073 8.33333 57.1833 8.12 58.138 8.12C58.9273 8.12 59.5967 8.26933 60.146 8.568C60.7007 8.86133 61.0927 9.288 61.322 9.848C61.4287 10.0987 61.498 10.3787 61.53 10.688C61.562 10.9973 61.578 11.312 61.578 11.632V17H60.53V14.832L60.834 14.96C60.5407 15.7013 60.0847 16.2667 59.466 16.656C58.8473 17.0453 58.106 17.24 57.242 17.24ZM57.378 16.224C57.9273 16.224 58.4073 16.1253 58.818 15.928C59.2287 15.7307 59.5593 15.4613 59.81 15.12C60.0607 14.7733 60.2233 14.384 60.298 13.952C60.362 13.6747 60.3967 13.3707 60.402 13.04C60.4073 12.704 60.41 12.4533 60.41 12.288L60.858 12.52C60.458 12.5733 60.0233 12.6267 59.554 12.68C59.09 12.7333 58.6313 12.7947 58.178 12.864C57.73 12.9333 57.3247 13.016 56.962 13.112C56.7167 13.1813 56.4793 13.28 56.25 13.408C56.0207 13.5307 55.8313 13.696 55.682 13.904C55.538 14.112 55.466 14.3707 55.466 14.68C55.466 14.9307 55.5273 15.1733 55.65 15.408C55.778 15.6427 55.9807 15.8373 56.258 15.992C56.5407 16.1467 56.914 16.224 57.378 16.224Z" fill="#292833"/>
<path d="M78 9L72.5 17L67 9" stroke="#292833" stroke-opacity="0.72"/>
</svg>
