<svg width="25" height="25" viewBox="0 0 25 25" fill="none" xmlns="http://www.w3.org/2000/svg">
<path d="M12.0899 18.6667C15.7648 18.6667 18.7439 15.7006 18.7439 12.0417C18.7439 8.38278 15.7648 5.41667 12.0899 5.41667C8.41507 5.41667 5.436 8.38278 5.436 12.0417C5.436 15.7006 8.41507 18.6667 12.0899 18.6667Z" fill="#CFD449"/>
<path d="M12.0899 1V2.10417ZM12.0899 21.9792V23.0833ZM23.1798 12.0417H22.0708ZM2.10899 12.0417H1ZM19.9304 4.23521L19.4957 4.66915ZM4.68406 19.4153L4.24823 19.8492ZM19.9304 19.8481L19.4957 19.4142ZM4.68406 4.66804L4.24823 4.2341Z" fill="#CFD449"/>
<path d="M12.0899 1V2.10417M12.0899 21.9792V23.0833M23.1798 12.0417H22.0708M2.10899 12.0417H1M19.9304 4.23521L19.4957 4.66915M4.68406 19.4153L4.24823 19.8492M19.9304 19.8481L19.4957 19.4142M4.68406 4.66804L4.24823 4.2341M18.7439 12.0417C18.7439 15.7006 15.7648 18.6667 12.0899 18.6667C8.41507 18.6667 5.436 15.7006 5.436 12.0417C5.436 8.38278 8.41507 5.41667 12.0899 5.41667C15.7648 5.41667 18.7439 8.38278 18.7439 12.0417Z" stroke="#CFD449" stroke-opacity="0.7" stroke-width="2" stroke-linecap="square"/>
</svg>
