<svg width="25" height="24" viewBox="0 0 25 24" fill="none" xmlns="http://www.w3.org/2000/svg">
<path d="M12.5 24C19.4036 24 25 18.6275 25 12C25 5.3725 19.4036 0 12.5 0C5.59635 0 0 5.3725 0 12C0 18.6275 5.59635 24 12.5 24Z" fill="#DEEEFF"/>
<path d="M9.7724 14.618V16.7995C9.7724 16.953 9.80156 17.0995 9.85208 17.236C9.94608 17.491 10.12 17.7118 10.35 17.8681C10.5799 18.0245 10.8547 18.1086 11.1365 18.109H11.5911V18.545C11.5911 18.786 11.7943 18.9815 12.0453 18.9815H12.9547C13.0753 18.9815 13.1909 18.9355 13.2762 18.8537C13.3615 18.7718 13.4094 18.6608 13.4094 18.545V18.109H13.8635C14.4573 18.109 14.9609 17.744 15.1479 17.236C15.2001 17.0959 15.2269 16.9483 15.2271 16.7995V14.618H9.7724Z" fill="#6BAFFF"/>
<path d="M9.7724 14.618H15.2271C16.7313 13.6855 17.9547 12.101 17.9547 10.254C17.9547 7.362 15.5125 5.018 12.5 5.018C9.48751 5.018 7.04532 7.362 7.04532 10.254C7.04532 12.101 8.18126 13.745 9.7724 14.618Z" fill="#2E3ECD"/>
<path d="M15.2271 14.618H9.77292V15.0545H15.2271V14.618ZM15.2271 15.709H9.77292V16.145H15.2271V15.709ZM12.5 16.8H9.77292C9.77292 16.953 9.80157 17.1 9.85209 17.236H15.1479C15.1984 17.0995 15.2271 16.953 15.2271 16.8H12.5Z" fill="#6BAFFF"/>
</svg>
