<svg width="176" height="24" viewBox="0 0 176 24" fill="none" xmlns="http://www.w3.org/2000/svg">
<path d="M12.8569 24C19.9577 24 25.7139 18.6275 25.7139 12C25.7139 5.3725 19.9577 0 12.8569 0C5.75616 0 0 5.3725 0 12C0 18.6275 5.75616 24 12.8569 24Z" fill="#DEEEFF"/>
<path d="M10.0514 14.618V16.7995C10.0514 16.953 10.0814 17.0995 10.1334 17.236C10.2301 17.491 10.409 17.7118 10.6455 17.8681C10.8821 18.0245 11.1646 18.1086 11.4545 18.109H11.9221V18.545C11.9221 18.786 12.1311 18.9815 12.3893 18.9815H13.3246C13.4486 18.9815 13.5676 18.9355 13.6553 18.8537C13.743 18.7718 13.7923 18.6608 13.7923 18.545V18.109H14.2594C14.8701 18.109 15.3881 17.744 15.5805 17.236C15.6342 17.0959 15.6617 16.9483 15.6619 16.7995V14.618H10.0514Z" fill="#6BAFFF"/>
<path d="M10.0514 14.618H15.6619C17.209 13.6855 18.4674 12.101 18.4674 10.254C18.4674 7.362 15.9555 5.018 12.8569 5.018C9.75841 5.018 7.24649 7.362 7.24649 10.254C7.24649 12.101 8.41487 13.745 10.0514 14.618Z" fill="#2E3ECD"/>
<path d="M15.6619 14.618H10.052V15.0545H15.6619V14.618ZM15.6619 15.709H10.052V16.145H15.6619V15.709ZM12.8569 16.8H10.052C10.052 16.953 10.0814 17.1 10.1334 17.236H15.5805C15.6324 17.0995 15.6619 16.953 15.6619 16.8H12.8569Z" fill="#6BAFFF"/>
<path d="M43.2214 5.416V19H40.1014V6.4L41.5414 7.816H30.3574L31.7974 6.4V19H28.6774V5.416H43.2214ZM48.4568 5.416H51.5768V10.144L51.4328 10.624V13.36L51.5768 14.2V22.96H48.4568V5.416ZM50.3768 12.208C50.6808 10.768 51.1848 9.52 51.8888 8.464C52.5928 7.392 53.4568 6.56 54.4808 5.968C55.5208 5.376 56.6728 5.08 57.9368 5.08C59.2648 5.08 60.4408 5.384 61.4648 5.992C62.4888 6.584 63.2888 7.416 63.8648 8.488C64.4408 9.544 64.7288 10.784 64.7288 12.208C64.7288 13.616 64.4408 14.856 63.8648 15.928C63.2888 17 62.4888 17.84 61.4648 18.448C60.4408 19.04 59.2648 19.336 57.9368 19.336C56.6728 19.336 55.5288 19.04 54.5048 18.448C53.4808 17.856 52.6088 17.024 51.8888 15.952C51.1848 14.88 50.6808 13.632 50.3768 12.208ZM61.5608 12.208C61.5608 11.296 61.3688 10.496 60.9848 9.808C60.6168 9.104 60.1048 8.56 59.4488 8.176C58.7928 7.776 58.0408 7.576 57.1928 7.576C56.3448 7.576 55.5448 7.776 54.7928 8.176C54.0568 8.56 53.4088 9.104 52.8488 9.808C52.2888 10.496 51.8328 11.296 51.4808 12.208C51.8328 13.12 52.2888 13.928 52.8488 14.632C53.4088 15.32 54.0568 15.864 54.7928 16.264C55.5448 16.648 56.3448 16.84 57.1928 16.84C58.0408 16.84 58.7928 16.648 59.4488 16.264C60.1048 15.864 60.6168 15.32 60.9848 14.632C61.3688 13.928 61.5608 13.12 61.5608 12.208ZM76.756 19.336C75.108 19.336 73.66 19.04 72.412 18.448C71.18 17.84 70.212 17 69.508 15.928C68.82 14.856 68.476 13.616 68.476 12.208C68.476 10.784 68.82 9.544 69.508 8.488C70.212 7.416 71.18 6.584 72.412 5.992C73.66 5.384 75.108 5.08 76.756 5.08C78.404 5.08 79.844 5.384 81.076 5.992C82.324 6.584 83.292 7.416 83.98 8.488C84.684 9.544 85.036 10.784 85.036 12.208C85.036 13.616 84.684 14.856 83.98 15.928C83.292 17 82.324 17.84 81.076 18.448C79.844 19.04 78.404 19.336 76.756 19.336ZM76.756 16.888C77.812 16.888 78.716 16.696 79.468 16.312C80.236 15.928 80.828 15.392 81.244 14.704C81.66 14 81.868 13.168 81.868 12.208C81.868 11.248 81.66 10.424 81.244 9.736C80.828 9.032 80.236 8.488 79.468 8.104C78.716 7.72 77.812 7.528 76.756 7.528C75.716 7.528 74.812 7.72 74.044 8.104C73.276 8.488 72.684 9.032 72.268 9.736C71.852 10.424 71.644 11.248 71.644 12.208C71.644 13.168 71.852 14 72.268 14.704C72.684 15.392 73.276 15.928 74.044 16.312C74.812 16.696 75.716 16.888 76.756 16.888ZM100.22 5.416V7.864H91.1721L92.6121 6.424V19H89.4921V5.416H100.22ZM104.115 19V5.416H107.187V17.44L106.251 17.224L115.539 5.416H119.571V19H116.499V6.808L117.459 7.048L108.051 19H104.115ZM124.809 5.416H127.905V19H124.809V5.416ZM136.353 5.416H139.449V19H136.353V5.416ZM126.561 10.912H137.649V13.312H126.561V10.912ZM143.002 19L148.69 10.312L150.874 12.28L146.65 19H143.002ZM165.802 19L161.602 12.28L163.762 10.312L169.45 19H165.802ZM157.762 16.312L156.85 15.976L165.466 5.416H169.018L157.474 19H154.978L143.434 5.416H146.986L155.602 15.976L154.69 16.312V5.416H157.762V16.312Z" fill="#292833"/>
</svg>
