<svg width="20" height="25" viewBox="0 0 20 25" fill="none" xmlns="http://www.w3.org/2000/svg">
<path d="M4.88597 16.7223V20.5223C4.88597 20.7897 4.93823 21.0449 5.02874 21.2826C5.19715 21.7269 5.50876 22.1115 5.92079 22.3838C6.33281 22.6561 6.82505 22.8026 7.32989 22.8033H8.14453V23.5628C8.14453 23.9826 8.50846 24.3231 8.95824 24.3231H10.5875C10.8036 24.3231 11.0108 24.243 11.1636 24.1004C11.3163 23.9579 11.4022 23.7645 11.4022 23.5628V22.8033H12.2159C13.2797 22.8033 14.182 22.1675 14.517 21.2826C14.6106 21.0386 14.6585 20.7815 14.6589 20.5223V16.7223H4.88597Z" fill="#6BAFFF"/>
<path d="M4.88597 16.7223H14.6589C17.3538 15.098 19.5458 12.3379 19.5458 9.12064C19.5458 4.08303 15.1702 0 9.77288 0C4.37554 0 0 4.08303 0 9.12064C0 12.3379 2.0352 15.2016 4.88597 16.7223Z" fill="#0F60D9"/>
<path d="M14.6589 16.7223H4.88692V17.4827H14.6589V16.7223ZM14.6589 18.6228H4.88692V19.3822H14.6589V18.6228ZM9.77289 20.5232H4.88692C4.88692 20.7897 4.93824 21.0457 5.02876 21.2826H14.517C14.6075 21.0449 14.6589 20.7897 14.6589 20.5232H9.77289Z" fill="#6BAFFF"/>
</svg>
