<svg width="230" height="28" viewBox="0 0 230 28" fill="none" xmlns="http://www.w3.org/2000/svg">
<path d="M14.9998 28C23.284 28 29.9995 21.7321 29.9995 14C29.9995 6.26792 23.284 0 14.9998 0C6.71552 0 0 6.26792 0 14C0 21.7321 6.71552 28 14.9998 28Z" fill="#DEEEFF"/>
<path d="M11.7267 17.0543V19.5994C11.7267 19.7785 11.7617 19.9494 11.8223 20.1087C11.9351 20.4062 12.1438 20.6638 12.4198 20.8462C12.6957 21.0285 13.0254 21.1267 13.3635 21.1272H13.9091V21.6358C13.9091 21.917 14.1529 22.1451 14.4541 22.1451H15.5454C15.6901 22.1451 15.8289 22.0914 15.9312 21.9959C16.0335 21.9004 16.091 21.7709 16.091 21.6358V21.1272H16.636C17.3485 21.1272 17.9528 20.7013 18.1772 20.1087C18.2399 19.9452 18.272 19.773 18.2722 19.5994V17.0543H11.7267Z" fill="#6BAFFF"/>
<path d="M11.7267 17.0543H18.2722C20.0772 15.9664 21.5453 14.1178 21.5453 11.963C21.5453 8.589 18.6147 5.85433 14.9998 5.85433C11.3848 5.85433 8.45424 8.589 8.45424 11.963C8.45424 14.1178 9.81735 16.0358 11.7267 17.0543Z" fill="#0F60D9"/>
<path d="M18.2722 17.0543H11.7273V17.5636H18.2722V17.0543ZM18.2722 18.3272H11.7273V18.8358H18.2722V18.3272ZM14.9998 19.6H11.7273C11.7273 19.7785 11.7617 19.95 11.8223 20.1087H18.1772C18.2378 19.9494 18.2722 19.7785 18.2722 19.6H14.9998Z" fill="#6BAFFF"/>
<path d="M52.9 7.152V23H49.26V8.3L50.94 9.952H37.892L39.572 8.3V23H35.932V7.152H52.9ZM73.7919 23L73.1759 17.12L73.9039 15.076L73.1759 13.06L73.7919 7.152H77.5439L76.7039 15.076L77.5439 23H73.7919ZM74.9119 15.076C74.5573 16.7373 73.9693 18.1933 73.1479 19.444C72.3266 20.6947 71.3093 21.6653 70.0959 22.356C68.9013 23.0467 67.5666 23.392 66.0919 23.392C64.5426 23.392 63.1706 23.0467 61.9759 22.356C60.7813 21.6467 59.8479 20.6667 59.1759 19.416C58.5039 18.1653 58.1679 16.7187 58.1679 15.076C58.1679 13.4147 58.5039 11.968 59.1759 10.736C59.8479 9.48533 60.7813 8.51467 61.9759 7.824C63.1706 7.11467 64.5426 6.76 66.0919 6.76C67.5666 6.76 68.9013 7.10533 70.0959 7.796C71.3093 8.48667 72.3266 9.45733 73.1479 10.708C73.9879 11.94 74.5759 13.396 74.9119 15.076ZM61.8639 15.076C61.8639 16.14 62.0786 17.0827 62.5079 17.904C62.9559 18.7067 63.5626 19.3413 64.3279 19.808C65.0933 20.256 65.9706 20.48 66.9599 20.48C67.9679 20.48 68.9013 20.256 69.7599 19.808C70.6186 19.3413 71.3746 18.7067 72.0279 17.904C72.6999 17.0827 73.2319 16.14 73.6239 15.076C73.2319 14.012 72.6999 13.0787 72.0279 12.276C71.3746 11.4547 70.6186 10.82 69.7599 10.372C68.9013 9.90533 67.9679 9.672 66.9599 9.672C65.9706 9.672 65.0933 9.90533 64.3279 10.372C63.5626 10.82 62.9559 11.4547 62.5079 12.276C62.0786 13.0787 61.8639 14.012 61.8639 15.076ZM83.287 7.152H86.927V12.668L86.759 13.228V16.42L86.927 17.4V27.62H83.287V7.152ZM85.527 15.076C85.8817 13.396 86.4697 11.94 87.291 10.708C88.1123 9.45733 89.1203 8.48667 90.315 7.796C91.5283 7.10533 92.8723 6.76 94.347 6.76C95.8963 6.76 97.2683 7.11467 98.463 7.824C99.6577 8.51467 100.591 9.48533 101.263 10.736C101.935 11.968 102.271 13.4147 102.271 15.076C102.271 16.7187 101.935 18.1653 101.263 19.416C100.591 20.6667 99.6577 21.6467 98.463 22.356C97.2683 23.0467 95.8963 23.392 94.347 23.392C92.8723 23.392 91.5377 23.0467 90.343 22.356C89.1483 21.6653 88.131 20.6947 87.291 19.444C86.4697 18.1933 85.8817 16.7373 85.527 15.076ZM98.575 15.076C98.575 14.012 98.351 13.0787 97.903 12.276C97.4737 11.4547 96.8763 10.82 96.111 10.372C95.3457 9.90533 94.4683 9.672 93.479 9.672C92.4897 9.672 91.5563 9.90533 90.679 10.372C89.8203 10.82 89.0643 11.4547 88.411 12.276C87.7577 13.0787 87.2257 14.012 86.815 15.076C87.2257 16.14 87.7577 17.0827 88.411 17.904C89.0643 18.7067 89.8203 19.3413 90.679 19.808C91.5563 20.256 92.4897 20.48 93.479 20.48C94.4683 20.48 95.3457 20.256 96.111 19.808C96.8763 19.3413 97.4737 18.7067 97.903 17.904C98.351 17.0827 98.575 16.14 98.575 15.076ZM122.323 23L121.707 17.12L122.435 15.076L121.707 13.06L122.323 7.152H126.075L125.235 15.076L126.075 23H122.323ZM123.443 15.076C123.088 16.7373 122.5 18.1933 121.679 19.444C120.857 20.6947 119.84 21.6653 118.627 22.356C117.432 23.0467 116.097 23.392 114.623 23.392C113.073 23.392 111.701 23.0467 110.507 22.356C109.312 21.6467 108.379 20.6667 107.707 19.416C107.035 18.1653 106.699 16.7187 106.699 15.076C106.699 13.4147 107.035 11.968 107.707 10.736C108.379 9.48533 109.312 8.51467 110.507 7.824C111.701 7.11467 113.073 6.76 114.623 6.76C116.097 6.76 117.432 7.10533 118.627 7.796C119.84 8.48667 120.857 9.45733 121.679 10.708C122.519 11.94 123.107 13.396 123.443 15.076ZM110.395 15.076C110.395 16.14 110.609 17.0827 111.039 17.904C111.487 18.7067 112.093 19.3413 112.859 19.808C113.624 20.256 114.501 20.48 115.491 20.48C116.499 20.48 117.432 20.256 118.291 19.808C119.149 19.3413 119.905 18.7067 120.559 17.904C121.231 17.0827 121.763 16.14 122.155 15.076C121.763 14.012 121.231 13.0787 120.559 12.276C119.905 11.4547 119.149 10.82 118.291 10.372C117.432 9.90533 116.499 9.672 115.491 9.672C114.501 9.672 113.624 9.90533 112.859 10.372C112.093 10.82 111.487 11.4547 111.039 12.276C110.609 13.0787 110.395 14.012 110.395 15.076ZM144.334 7.152V10.008H133.778L135.458 8.328V23H131.818V7.152H144.334ZM148.878 7.152H152.518V12.668L152.35 13.228V16.42L152.518 17.4V27.62H148.878V7.152ZM151.118 15.076C151.473 13.396 152.061 11.94 152.882 10.708C153.703 9.45733 154.711 8.48667 155.906 7.796C157.119 7.10533 158.463 6.76 159.938 6.76C161.487 6.76 162.859 7.11467 164.054 7.824C165.249 8.51467 166.182 9.48533 166.854 10.736C167.526 11.968 167.862 13.4147 167.862 15.076C167.862 16.7187 167.526 18.1653 166.854 19.416C166.182 20.6667 165.249 21.6467 164.054 22.356C162.859 23.0467 161.487 23.392 159.938 23.392C158.463 23.392 157.129 23.0467 155.934 22.356C154.739 21.6653 153.722 20.6947 152.882 19.444C152.061 18.1933 151.473 16.7373 151.118 15.076ZM164.166 15.076C164.166 14.012 163.942 13.0787 163.494 12.276C163.065 11.4547 162.467 10.82 161.702 10.372C160.937 9.90533 160.059 9.672 159.07 9.672C158.081 9.672 157.147 9.90533 156.27 10.372C155.411 10.82 154.655 11.4547 154.002 12.276C153.349 13.0787 152.817 14.012 152.406 15.076C152.817 16.14 153.349 17.0827 154.002 17.904C154.655 18.7067 155.411 19.3413 156.27 19.808C157.147 20.256 158.081 20.48 159.07 20.48C160.059 20.48 160.937 20.256 161.702 19.808C162.467 19.3413 163.065 18.7067 163.494 17.904C163.942 17.0827 164.166 16.14 164.166 15.076ZM187.914 23L187.298 17.12L188.026 15.076L187.298 13.06L187.914 7.152H191.666L190.826 15.076L191.666 23H187.914ZM189.034 15.076C188.679 16.7373 188.091 18.1933 187.27 19.444C186.448 20.6947 185.431 21.6653 184.218 22.356C183.023 23.0467 181.688 23.392 180.214 23.392C178.664 23.392 177.292 23.0467 176.098 22.356C174.903 21.6467 173.97 20.6667 173.298 19.416C172.626 18.1653 172.29 16.7187 172.29 15.076C172.29 13.4147 172.626 11.968 173.298 10.736C173.97 9.48533 174.903 8.51467 176.098 7.824C177.292 7.11467 178.664 6.76 180.214 6.76C181.688 6.76 183.023 7.10533 184.218 7.796C185.431 8.48667 186.448 9.45733 187.27 10.708C188.11 11.94 188.698 13.396 189.034 15.076ZM175.986 15.076C175.986 16.14 176.2 17.0827 176.63 17.904C177.078 18.7067 177.684 19.3413 178.45 19.808C179.215 20.256 180.092 20.48 181.082 20.48C182.09 20.48 183.023 20.256 183.882 19.808C184.74 19.3413 185.496 18.7067 186.15 17.904C186.822 17.0827 187.354 16.14 187.746 15.076C187.354 14.012 186.822 13.0787 186.15 12.276C185.496 11.4547 184.74 10.82 183.882 10.372C183.023 9.90533 182.09 9.672 181.082 9.672C180.092 9.672 179.215 9.90533 178.45 10.372C177.684 10.82 177.078 11.4547 176.63 12.276C176.2 13.0787 175.986 14.012 175.986 15.076ZM211.437 27.62V18.212L211.773 16.924V13.06L211.437 11.744V1.44H215.021V11.772L214.685 13.06V16.896L215.021 18.212V27.62H211.437ZM213.621 15.076C213.976 13.396 214.545 11.94 215.329 10.708C216.113 9.45733 217.084 8.48667 218.241 7.796C219.417 7.10533 220.733 6.76 222.189 6.76C223.72 6.76 225.064 7.11467 226.221 7.824C227.378 8.51467 228.284 9.48533 228.937 10.736C229.59 11.968 229.917 13.4147 229.917 15.076C229.917 16.7187 229.59 18.1653 228.937 19.416C228.284 20.6667 227.378 21.6467 226.221 22.356C225.064 23.0467 223.72 23.392 222.189 23.392C220.733 23.392 219.417 23.0467 218.241 22.356C217.084 21.6653 216.113 20.6947 215.329 19.444C214.545 18.1933 213.976 16.7373 213.621 15.076ZM226.221 15.076C226.221 14.012 226.006 13.0787 225.577 12.276C225.166 11.4547 224.597 10.82 223.869 10.372C223.141 9.90533 222.292 9.672 221.321 9.672C219.846 9.672 218.549 10.176 217.429 11.184C216.309 12.1733 215.45 13.4707 214.853 15.076C215.45 16.6627 216.309 17.9693 217.429 18.996C218.549 20.004 219.846 20.508 221.321 20.508C222.292 20.508 223.141 20.2747 223.869 19.808C224.597 19.3413 225.166 18.7067 225.577 17.904C226.006 17.0827 226.221 16.14 226.221 15.076ZM212.837 15.076C212.501 16.7373 211.932 18.1933 211.129 19.444C210.345 20.6947 209.374 21.6653 208.217 22.356C207.06 23.0467 205.753 23.392 204.297 23.392C202.766 23.392 201.422 23.0467 200.265 22.356C199.108 21.6467 198.202 20.6667 197.549 19.416C196.896 18.1653 196.569 16.7187 196.569 15.076C196.569 13.4147 196.896 11.968 197.549 10.736C198.202 9.48533 199.108 8.51467 200.265 7.824C201.422 7.11467 202.766 6.76 204.297 6.76C205.753 6.76 207.06 7.10533 208.217 7.796C209.374 8.48667 210.345 9.45733 211.129 10.708C211.932 11.94 212.501 13.396 212.837 15.076ZM200.265 15.076C200.265 16.14 200.47 17.0827 200.881 17.904C201.292 18.7067 201.861 19.3413 202.589 19.808C203.336 20.2747 204.185 20.508 205.137 20.508C206.63 20.508 207.928 20.004 209.029 18.996C210.149 17.9693 211.017 16.6627 211.633 15.076C211.017 13.4707 210.149 12.1733 209.029 11.184C207.928 10.176 206.63 9.672 205.137 9.672C204.185 9.672 203.336 9.90533 202.589 10.372C201.861 10.82 201.292 11.4547 200.881 12.276C200.47 13.0787 200.265 14.012 200.265 15.076Z" fill="#292833"/>
</svg>
