<svg width="38" height="38" viewBox="0 0 38 38" fill="none" xmlns="http://www.w3.org/2000/svg">
<rect width="38" height="38" rx="8" fill="#B8CEED"/>
<path fill-rule="evenodd" clip-rule="evenodd" d="M31.9177 15.2669L31.9251 18.4339C31.933 22.1306 31.9379 23.9795 31.1933 25.38C30.6059 26.4857 29.704 27.3925 28.6014 27.9857C28.4631 28.0604 28.32 28.1275 28.1721 28.1872C26.8204 28.7383 24.9895 28.7433 21.6589 28.7522C17.9622 28.7602 16.1133 28.7651 14.7128 28.0205C13.6068 27.4327 12.6998 26.5302 12.1067 25.4271C11.3546 24.0297 11.35 22.1823 11.3421 18.4857L11.3333 15.319L11.3319 13.835C11.3383 11.1005 11.4268 9.57246 12.0646 8.37141C12.6524 7.26626 13.5544 6.36005 14.6569 5.76724C16.0543 5.01513 17.9032 5.0102 21.6014 5.00185C25.2961 4.99281 27.145 4.98787 28.5451 5.73096C29.6515 6.31905 30.5586 7.22211 31.1517 8.32588C31.9038 9.72328 31.9083 11.5706 31.9177 15.2669ZM16.5955 17.9204C16.5951 17.7644 16.6255 17.6098 16.6849 17.4656C16.7443 17.3214 16.8316 17.1903 16.9416 17.0797C17.0517 16.9692 17.1825 16.8815 17.3265 16.8215C17.4705 16.7615 17.6249 16.7305 17.7809 16.7303L25.6985 16.712C25.8573 16.707 26.0155 16.7339 26.1637 16.7912C26.312 16.8484 26.4472 16.9349 26.5614 17.0453C26.6756 17.1558 26.7665 17.2881 26.8287 17.4343C26.8908 17.5806 26.923 17.7378 26.9233 17.8967C26.9236 18.0556 26.892 18.213 26.8303 18.3594C26.7687 18.5059 26.6783 18.6385 26.5645 18.7494C26.4507 18.8603 26.3158 18.9472 26.1677 19.005C26.0197 19.0628 25.8616 19.0903 25.7028 19.0859L17.7856 19.1057C17.4709 19.1063 17.1688 18.982 16.9458 18.76C16.7227 18.538 16.5965 18.235 16.5955 17.9204ZM16.6084 22.672C16.6078 22.3573 16.7322 22.0553 16.9542 21.8322C17.1761 21.6091 17.4776 21.4833 17.7923 21.4823L22.5428 21.4714C22.7021 21.4654 22.861 21.4916 23.01 21.5483C23.159 21.6051 23.2951 21.6913 23.41 21.8018C23.525 21.9122 23.6165 22.0447 23.6792 22.1913C23.7419 22.3379 23.7744 22.4957 23.7748 22.6551C23.7751 22.8145 23.7434 22.9724 23.6815 23.1194C23.6195 23.2663 23.5287 23.3992 23.4142 23.5102C23.2998 23.6213 23.1642 23.7081 23.0155 23.7656C22.8668 23.8231 22.708 23.8501 22.5486 23.8449L17.7985 23.8574C17.6425 23.8577 17.488 23.8274 17.3438 23.768C17.1995 23.7086 17.0684 23.6213 16.9579 23.5113C16.8474 23.4012 16.7596 23.2704 16.6997 23.1264C16.6397 22.9824 16.6087 22.828 16.6084 22.672Z" fill="#404040"/>
<path fill-rule="evenodd" clip-rule="evenodd" d="M26.5858 19.2669L26.5931 22.4339C26.6011 26.1306 26.606 27.9795 25.8614 29.38C25.274 30.4857 24.3721 31.3925 23.2695 31.9857C23.1312 32.0604 22.988 32.1275 22.8402 32.1872C21.4884 32.7383 19.6576 32.7433 16.327 32.7522C12.6303 32.7602 10.7814 32.7651 9.38088 32.0205C8.27485 31.4327 7.36792 30.5302 6.77476 29.4271C6.02265 28.0297 6.01813 26.1823 6.0102 22.4857L6.00136 19.319L6 17.835C6.00641 15.1005 6.09485 13.5725 6.73269 12.3714C7.32045 11.2663 8.22252 10.3601 9.32497 9.76724C10.7224 9.01513 12.5713 9.0102 16.2695 9.00185C19.9642 8.99281 21.8131 8.98787 23.2132 9.73096C24.3196 10.319 25.2267 11.2221 25.8197 12.3259C26.5719 13.7233 26.5764 15.5706 26.5858 19.2669ZM11.2636 21.9204C11.2632 21.7644 11.2936 21.6098 11.353 21.4656C11.4124 21.3214 11.4996 21.1903 11.6097 21.0797C11.7198 20.9692 11.8506 20.8815 11.9946 20.8215C12.1386 20.7615 12.293 20.7305 12.449 20.7303L20.3665 20.712C20.5254 20.707 20.6836 20.7339 20.8318 20.7912C20.98 20.8484 21.1153 20.9349 21.2295 21.0453C21.3437 21.1558 21.4346 21.2881 21.4968 21.4343C21.5589 21.5806 21.5911 21.7378 21.5914 21.8967C21.5917 22.0556 21.5601 22.213 21.4984 22.3594C21.4368 22.5059 21.3464 22.6385 21.2326 22.7494C21.1188 22.8603 20.9839 22.9472 20.8358 23.005C20.6878 23.0628 20.5297 23.0903 20.3709 23.0859L12.4537 23.1057C12.139 23.1063 11.8369 22.982 11.6139 22.76C11.3908 22.538 11.2645 22.235 11.2636 21.9204ZM11.2765 26.672C11.2759 26.3573 11.4003 26.0553 11.6222 25.8322C11.8442 25.6091 12.1457 25.4833 12.4603 25.4823L17.2109 25.4714C17.3702 25.4654 17.5291 25.4916 17.6781 25.5483C17.8271 25.6051 17.9632 25.6913 18.0781 25.8018C18.1931 25.9122 18.2846 26.0447 18.3473 26.1913C18.41 26.3379 18.4425 26.4957 18.4428 26.6551C18.4432 26.8145 18.4115 26.9724 18.3496 27.1194C18.2876 27.2663 18.1967 27.3992 18.0823 27.5102C17.9679 27.6213 17.8323 27.7081 17.6836 27.7656C17.5349 27.8231 17.3761 27.8501 17.2167 27.8449L12.4666 27.8574C12.3106 27.8577 12.1561 27.8274 12.0119 27.768C11.8676 27.7086 11.7365 27.6213 11.626 27.5113C11.5155 27.4012 11.4277 27.2704 11.3677 27.1264C11.3078 26.9824 11.2768 26.828 11.2765 26.672Z" fill="#404040" fill-opacity="0.8"/>
</svg>
