<svg width="38" height="38" viewBox="0 0 38 38" fill="none" xmlns="http://www.w3.org/2000/svg">
<rect width="38" height="38" rx="8" fill="#19191C"/>
<path d="M4.36203 23.3003L5.18062 26.3593C6.13695 29.9297 6.6167 31.7157 7.70128 32.8732C8.55731 33.7864 9.66476 34.4256 10.8838 34.7098C12.4291 35.0708 14.2151 34.5927 17.7871 33.6363C21.3559 32.68 23.1419 32.2018 24.2994 31.1172C24.3954 31.0265 24.4883 30.9336 24.578 30.8386C24.0388 30.79 23.5028 30.7107 22.9725 30.6011C21.8705 30.3826 20.5611 30.0311 19.0126 29.6162L18.8432 29.5703L18.8036 29.5608C17.1189 29.108 15.7114 28.7312 14.5872 28.3258C13.4044 27.8983 12.3309 27.3711 11.4174 26.5161C10.1607 25.3387 9.28132 23.8152 8.89037 22.1382C8.60537 20.9206 8.6877 19.7267 8.90937 18.4902C9.12153 17.3042 9.50153 15.8824 9.95753 14.1803L10.8046 11.0232L10.8331 10.9123C7.79312 11.7309 6.19237 12.2154 5.1252 13.2145C4.21081 14.0712 3.57108 15.1798 3.28695 16.4002C2.92595 17.9439 3.40412 19.7299 4.36203 23.3003Z" fill="#525050" fill-opacity="0.8"/>
<path fill-rule="evenodd" clip-rule="evenodd" d="M32.9809 16.9654L32.1607 20.0244C31.2028 23.5948 30.7246 25.3808 29.64 26.5383C28.7842 27.4521 27.6767 28.0918 26.4575 28.3765C26.3045 28.4124 26.1488 28.4398 25.9904 28.4588C24.5417 28.6378 22.7731 28.1643 19.5558 27.303C15.9854 26.3451 14.1994 25.8669 13.0419 24.7823C12.1278 23.9261 11.4881 22.818 11.2037 21.5983C10.8427 20.0529 11.3209 18.2685 12.2788 14.6981L13.0974 11.6391L13.4837 10.2062C14.2041 7.56834 14.6886 6.11643 15.618 5.12368C16.4741 4.21041 17.5815 3.57128 18.8005 3.28701C20.3459 2.92601 22.1319 3.40418 25.7039 4.36209C29.2727 5.31843 31.0587 5.79659 32.2161 6.87959C33.1305 7.73626 33.7702 8.84491 34.0544 10.0653C34.4154 11.6106 33.9372 13.395 32.9809 16.9654ZM17.4974 15.5246C17.5379 15.3739 17.6076 15.2327 17.7026 15.109C17.7976 14.9853 17.916 14.8815 18.0511 14.8036C18.1863 14.7256 18.3354 14.6751 18.4901 14.6548C18.6447 14.6346 18.8019 14.645 18.9525 14.6854L26.6 16.7358C26.7546 16.7725 26.9003 16.8398 27.0285 16.9338C27.1566 17.0278 27.2645 17.1466 27.3459 17.283C27.4273 17.4195 27.4805 17.5709 27.5023 17.7284C27.5241 17.8858 27.5141 18.0459 27.4729 18.1994C27.4317 18.3529 27.3601 18.4965 27.2623 18.6218C27.1646 18.7471 27.0427 18.8515 26.9038 18.9288C26.765 19.0061 26.6121 19.0547 26.4541 19.0719C26.2961 19.089 26.1363 19.0743 25.9841 19.0285L18.3366 16.9797C18.0327 16.898 17.7736 16.6991 17.6163 16.4266C17.4589 16.154 17.4162 15.8286 17.4974 15.5246ZM16.2688 20.1147C16.3504 19.8108 16.5494 19.5517 16.8219 19.3943C17.0944 19.237 17.4183 19.1942 17.7223 19.2755L22.3108 20.5058C22.4661 20.5416 22.6127 20.6084 22.7417 20.7021C22.8707 20.7958 22.9795 20.9145 23.0616 21.0512C23.1437 21.1879 23.1975 21.3397 23.2197 21.4976C23.2419 21.6554 23.232 21.8162 23.1908 21.9702C23.1495 22.1242 23.0776 22.2683 22.9795 22.394C22.8813 22.5196 22.7588 22.6242 22.6194 22.7015C22.4799 22.7788 22.3264 22.8272 22.1678 22.8438C22.0092 22.8605 21.8489 22.8451 21.6964 22.7984L17.1079 21.5698C16.9573 21.5293 16.8161 21.4596 16.6923 21.3646C16.5686 21.2696 16.4648 21.1512 16.3869 21.0161C16.309 20.8809 16.2584 20.7318 16.2382 20.5771C16.2179 20.4225 16.2283 20.2653 16.2688 20.1147Z" fill="#787777" fill-opacity="0.79"/>
</svg>
