<svg width="29" height="29" viewBox="0 0 29 29" fill="none" xmlns="http://www.w3.org/2000/svg">
<path d="M19.7727 9.22727H27.0227L19.7727 1.97727V9.22727ZM7.90909 0H21.0909L29 7.90909V21.0909C29 21.7901 28.7222 22.4607 28.2278 22.9551C27.7334 23.4495 27.0628 23.7273 26.3636 23.7273H7.90909C7.20988 23.7273 6.53931 23.4495 6.0449 22.9551C5.55049 22.4607 5.27273 21.7901 5.27273 21.0909V2.63636C5.27273 1.93716 5.55049 1.26659 6.0449 0.772173C6.53931 0.277759 7.20988 0 7.90909 0ZM2.63636 5.27273V26.3636H26.3636V29H2.63636C1.93716 29 1.26659 28.7222 0.772173 28.2278C0.277759 27.7334 0 27.0628 0 26.3636V5.27273H2.63636Z" fill="#404040"/>
</svg>
