<svg width="14" height="15" viewBox="0 0 14 15" fill="none" xmlns="http://www.w3.org/2000/svg">
<path d="M12.4709 2.49999C12.4141 2.49414 12.3569 2.49414 12.3001 2.49999H0.633431C0.558658 2.50115 0.48438 2.51236 0.412598 2.53333L6.43343 8.52916L12.4709 2.49999Z" fill="#8F8F8F"/>
<path d="M13.0875 3.07922L7.02087 9.12089C6.86473 9.2761 6.65352 9.36322 6.43337 9.36322C6.21321 9.36322 6.002 9.2761 5.84587 9.12089L-0.166634 3.12506C-0.185118 3.19299 -0.194918 3.26299 -0.195801 3.33339V11.6667C-0.195801 11.8877 -0.108003 12.0997 0.0482769 12.256C0.204557 12.4123 0.416519 12.5001 0.637532 12.5001H12.3042C12.5252 12.5001 12.7372 12.4123 12.8935 12.256C13.0497 12.0997 13.1375 11.8877 13.1375 11.6667V3.33339C13.1342 3.24658 13.1173 3.16082 13.0875 3.07922ZM1.20837 11.6667H0.629199V11.0709L3.65837 8.06672L4.24587 8.65422L1.20837 11.6667ZM12.2959 11.6667H11.7125L8.67503 8.65422L9.26253 8.06672L12.2917 11.0709L12.2959 11.6667Z" fill="#8F8F8F"/>
</svg>
