<svg width="14" height="13" viewBox="0 0 14 13" fill="none" xmlns="http://www.w3.org/2000/svg">
<g clip-path="url(#clip0_420_199)">
<path d="M3.99998 5.06997H3.56498C2.97136 5.04851 2.37966 5.14929 1.82661 5.36604C1.27356 5.58278 0.770949 5.91088 0.34998 6.32997L0.22998 6.46997V10.61H2.26998V8.25997L2.54498 7.94997L2.66998 7.80497C3.32094 7.13622 4.13137 6.64411 5.02498 6.37497C4.57774 6.03437 4.22491 5.58517 3.99998 5.06997Z" fill="#8F8F8F"/>
<path d="M13.6702 6.31495C13.2492 5.89587 12.7466 5.56777 12.1935 5.35102C11.6405 5.13427 11.0488 5.0335 10.4552 5.05495C10.2731 5.05593 10.0912 5.06594 9.91016 5.08495C9.68103 5.5683 9.33784 5.9887 8.91016 6.30995C9.86425 6.57364 10.7285 7.0922 11.4102 7.80995L11.5352 7.94995L11.8052 8.25995V10.615H13.7752V6.45495L13.6702 6.31495Z" fill="#8F8F8F"/>
<path d="M3.54994 4.09502H3.70494C3.63292 3.47665 3.74142 2.85064 4.01735 2.29257C4.29328 1.7345 4.72484 1.26822 5.25994 0.950024C5.06597 0.653699 4.79837 0.412828 4.48334 0.250998C4.16831 0.0891674 3.81665 0.0119265 3.4628 0.0268381C3.10895 0.0417498 2.76504 0.148303 2.46475 0.336063C2.16445 0.523824 1.91806 0.786355 1.74971 1.09795C1.58136 1.40954 1.49682 1.75952 1.50437 2.1136C1.51192 2.46768 1.61129 2.81374 1.79276 3.11788C1.97424 3.42201 2.23159 3.67381 2.53961 3.8486C2.84763 4.0234 3.19577 4.1152 3.54994 4.11502V4.09502Z" fill="#8F8F8F"/>
<path d="M10.2149 3.72003C10.2205 3.83496 10.2205 3.9501 10.2149 4.06503C10.3108 4.08039 10.4077 4.08875 10.5049 4.09003H10.5999C10.9525 4.07123 11.2942 3.96144 11.5918 3.77137C11.8894 3.58129 12.1327 3.3174 12.298 3.00539C12.4633 2.69337 12.545 2.34387 12.5352 1.99089C12.5253 1.63792 12.4243 1.29352 12.2418 0.991206C12.0593 0.688895 11.8017 0.43898 11.494 0.265793C11.1863 0.0926055 10.8389 0.00204788 10.4858 0.00293616C10.1327 0.00382444 9.78586 0.0961285 9.47902 0.270862C9.17218 0.445595 8.9158 0.696803 8.73486 1.00003C9.1874 1.2955 9.55952 1.69868 9.81783 2.17341C10.0761 2.64815 10.2126 3.17958 10.2149 3.72003Z" fill="#8F8F8F"/>
<path d="M6.9352 5.95999C8.16955 5.95999 9.1702 4.95935 9.1702 3.72499C9.1702 2.49063 8.16955 1.48999 6.9352 1.48999C5.70084 1.48999 4.7002 2.49063 4.7002 3.72499C4.7002 4.95935 5.70084 5.95999 6.9352 5.95999Z" fill="#8F8F8F"/>
<path d="M7.055 7.14999C6.40205 7.12391 5.75057 7.23006 5.13967 7.46205C4.52877 7.69403 3.97105 8.04708 3.5 8.49999L3.375 8.63999V11.805C3.37695 11.9081 3.39919 12.0098 3.44046 12.1043C3.48172 12.1988 3.5412 12.2842 3.61549 12.3557C3.68978 12.4272 3.77743 12.4834 3.87343 12.521C3.96943 12.5586 4.07191 12.577 4.175 12.575H9.92C10.0231 12.577 10.1256 12.5586 10.2216 12.521C10.3176 12.4834 10.4052 12.4272 10.4795 12.3557C10.5538 12.2842 10.6133 12.1988 10.6545 12.1043C10.6958 12.0098 10.718 11.9081 10.72 11.805V8.64999L10.6 8.49999C10.1322 8.04545 9.57641 7.69125 8.96683 7.45911C8.35725 7.22697 7.70668 7.12178 7.055 7.14999Z" fill="#8F8F8F"/>
</g>
<defs>
<clipPath id="clip0_420_199">
<rect width="14" height="13" fill="white"/>
</clipPath>
</defs>
</svg>
