<svg width="13" height="12" viewBox="0 0 13 12" fill="none" xmlns="http://www.w3.org/2000/svg">
<path fill-rule="evenodd" clip-rule="evenodd" d="M4.74377 1.98269C6.4033 0.672438 9.08721 0.672438 10.7473 1.98269C12.4176 3.30084 12.4176 5.44505 10.7473 6.76367L6.26397 10.3023C5.08504 11.2326 3.18069 11.2326 2.00176 10.3023C1.72004 10.0836 1.49556 9.81964 1.34212 9.52673C1.18869 9.23381 1.10954 8.91811 1.10954 8.59904C1.10954 8.27997 1.18869 7.96427 1.34212 7.67136C1.49556 7.37844 1.72004 7.1145 2.00176 6.89577L6.42079 3.40828C6.76144 3.14291 7.21232 2.99506 7.68095 2.99506C8.14959 2.99506 8.60047 3.14291 8.94112 3.40828C9.10903 3.53874 9.24283 3.69612 9.33428 3.87077C9.42573 4.04542 9.4729 4.23364 9.4729 4.42388C9.4729 4.61411 9.42573 4.80233 9.33428 4.97698C9.24283 5.15163 9.10903 5.30902 8.94112 5.43947L4.49049 8.953C4.45035 8.9847 4.40302 9.00957 4.35121 9.02619C4.2994 9.04281 4.24414 9.05085 4.18856 9.04986C4.13299 9.04886 4.07819 9.03885 4.02731 9.0204C3.97642 9.00195 3.93045 8.97541 3.892 8.9423C3.85356 8.9092 3.8234 8.87017 3.80324 8.82745C3.78309 8.78474 3.77333 8.73916 3.77454 8.69334C3.77574 8.64751 3.78788 8.60233 3.81026 8.56038C3.83264 8.51842 3.86483 8.48051 3.90498 8.44881L8.3556 4.93574C8.44081 4.87032 8.50876 4.79113 8.55523 4.70311C8.60169 4.61508 8.62567 4.52011 8.62567 4.42411C8.62567 4.32811 8.60169 4.23314 8.55523 4.14511C8.50876 4.05709 8.44081 3.9779 8.3556 3.91248C8.17247 3.77145 7.93124 3.69302 7.68067 3.69302C7.4301 3.69302 7.18887 3.77145 7.00574 3.91248L2.58671 7.39996C2.38757 7.55355 2.22881 7.73923 2.12027 7.94549C2.01173 8.15176 1.95572 8.3742 1.95572 8.59904C1.95572 8.82388 2.01173 9.04633 2.12027 9.25259C2.22881 9.45885 2.38757 9.64453 2.58671 9.79813C3.43848 10.4702 4.82725 10.4702 5.67902 9.79813L10.1624 6.25948C11.4846 5.21575 11.4846 3.53015 10.1624 2.48641C8.82943 1.43477 6.66165 1.43477 5.32816 2.48641L1.71633 5.33761C1.63532 5.40169 1.52675 5.43662 1.41451 5.4347C1.30228 5.43278 1.19556 5.39417 1.11784 5.32738C1.04012 5.26058 0.997764 5.17106 1.00009 5.07851C1.00242 4.98596 1.04924 4.89797 1.13025 4.83388L4.74377 1.98269Z" fill="#3F8BFE" fill-opacity="0.47"/>
<path d="M4.43359 1.58984C6.27467 0.136264 9.21491 0.136616 11.0566 1.58984C11.9984 2.3331 12.5 3.33796 12.5 4.37305C12.5 5.40802 11.9992 6.4128 11.0576 7.15625H11.0566L6.57422 10.6943L6.57324 10.6953C5.21281 11.7683 3.05279 11.7684 1.69238 10.6953V10.6943C1.36007 10.4357 1.08804 10.1188 0.899414 9.75879C0.70989 9.39698 0.609375 9.00151 0.609375 8.59863C0.609443 8.1959 0.709954 7.80114 0.899414 7.43945C1.08812 7.07921 1.35985 6.7617 1.69238 6.50293L6.11133 3.01562L6.11328 3.01367C6.54933 2.67398 7.11091 2.49518 7.68066 2.49512C8.25039 2.49512 8.81197 2.67408 9.24805 3.01367L9.40527 3.14941C9.55522 3.29236 9.68195 3.45652 9.77734 3.63867C9.90485 3.88218 9.97265 4.14984 9.97266 4.42383C9.97266 4.69783 9.90486 4.96546 9.77734 5.20898C9.65069 5.45086 9.46864 5.66058 9.25 5.83105L4.80078 9.3457C4.71079 9.41676 4.60899 9.46823 4.50391 9.50195C4.39877 9.53568 4.28887 9.55175 4.17969 9.5498C4.07049 9.54785 3.96056 9.52799 3.85645 9.49023C3.75253 9.45249 3.65273 9.39646 3.56543 9.32129C3.47792 9.2459 3.4028 9.15167 3.35059 9.04102C3.29817 8.92993 3.27117 8.80692 3.27441 8.68066L3.2832 8.58691C3.29671 8.49446 3.32599 8.40612 3.36914 8.3252L3.41602 8.24805C3.46643 8.17416 3.52724 8.10998 3.59473 8.05664L8.0459 4.54297L8.05078 4.53906C8.08348 4.51396 8.10303 4.48914 8.11328 4.46973C8.12319 4.45093 8.12598 4.43542 8.12598 4.42383C8.12593 4.41234 8.12297 4.3974 8.11328 4.37891C8.10816 4.36921 8.10092 4.35749 8.09082 4.3457L8.05078 4.30859C7.9626 4.24069 7.83074 4.19336 7.68066 4.19336C7.53059 4.19336 7.39872 4.24069 7.31055 4.30859L2.89648 7.79199L2.89258 7.7959L2.58691 7.40039L2.8916 7.7959C2.74494 7.90908 2.63495 8.04103 2.5625 8.17871C2.49052 8.31565 2.45612 8.45821 2.45605 8.59863C2.45605 8.73923 2.4904 8.88243 2.5625 9.01953C2.61693 9.12297 2.69264 9.22318 2.78906 9.31445L2.8916 9.40234L2.89648 9.40527C3.56663 9.93407 4.69899 9.93407 5.36914 9.40527L9.85254 5.86719C10.4078 5.42885 10.6543 4.88494 10.6543 4.37305C10.6543 3.92519 10.4659 3.45257 10.0469 3.04785L9.85254 2.87891C8.77315 2.02738 7.02569 1.9744 5.8623 2.71973L5.6377 2.87891L2.02637 5.73047L2.02539 5.72949C1.84587 5.87126 1.62295 5.93821 1.40625 5.93457C1.1894 5.93086 0.966765 5.85713 0.791992 5.70703C0.614347 5.55435 0.493621 5.32615 0.5 5.06641L0.508789 4.9707C0.540718 4.75275 0.660845 4.56755 0.820312 4.44141L4.43359 1.58984Z" stroke="#555F75" stroke-opacity="0.83"/>
<path d="M4.43359 1.58984C6.27467 0.136264 9.21491 0.136616 11.0566 1.58984C11.9984 2.3331 12.5 3.33796 12.5 4.37305C12.5 5.40802 11.9992 6.4128 11.0576 7.15625H11.0566L6.57422 10.6943L6.57324 10.6953C5.21281 11.7683 3.05279 11.7684 1.69238 10.6953V10.6943C1.36007 10.4357 1.08804 10.1188 0.899414 9.75879C0.70989 9.39698 0.609375 9.00151 0.609375 8.59863C0.609443 8.1959 0.709954 7.80114 0.899414 7.43945C1.08812 7.07921 1.35985 6.7617 1.69238 6.50293L6.11133 3.01562L6.11328 3.01367C6.54933 2.67398 7.11091 2.49518 7.68066 2.49512C8.25039 2.49512 8.81197 2.67408 9.24805 3.01367L9.40527 3.14941C9.55522 3.29236 9.68195 3.45652 9.77734 3.63867C9.90485 3.88218 9.97265 4.14984 9.97266 4.42383C9.97266 4.69783 9.90486 4.96546 9.77734 5.20898C9.65069 5.45086 9.46864 5.66058 9.25 5.83105L4.80078 9.3457C4.71079 9.41676 4.60899 9.46823 4.50391 9.50195C4.39877 9.53568 4.28887 9.55175 4.17969 9.5498C4.07049 9.54785 3.96056 9.52799 3.85645 9.49023C3.75253 9.45249 3.65273 9.39646 3.56543 9.32129C3.47792 9.2459 3.4028 9.15167 3.35059 9.04102C3.29817 8.92993 3.27117 8.80692 3.27441 8.68066L3.2832 8.58691C3.29671 8.49446 3.32599 8.40612 3.36914 8.3252L3.41602 8.24805C3.46643 8.17416 3.52724 8.10998 3.59473 8.05664L8.0459 4.54297L8.05078 4.53906C8.08348 4.51396 8.10303 4.48914 8.11328 4.46973C8.12319 4.45093 8.12598 4.43542 8.12598 4.42383C8.12593 4.41234 8.12297 4.3974 8.11328 4.37891C8.10816 4.36921 8.10092 4.35749 8.09082 4.3457L8.05078 4.30859C7.9626 4.24069 7.83074 4.19336 7.68066 4.19336C7.53059 4.19336 7.39872 4.24069 7.31055 4.30859L2.89648 7.79199L2.89258 7.7959L2.58691 7.40039L2.8916 7.7959C2.74494 7.90908 2.63495 8.04103 2.5625 8.17871C2.49052 8.31565 2.45612 8.45821 2.45605 8.59863C2.45605 8.73923 2.4904 8.88243 2.5625 9.01953C2.61693 9.12297 2.69264 9.22318 2.78906 9.31445L2.8916 9.40234L2.89648 9.40527C3.56663 9.93407 4.69899 9.93407 5.36914 9.40527L9.85254 5.86719C10.4078 5.42885 10.6543 4.88494 10.6543 4.37305C10.6543 3.92519 10.4659 3.45257 10.0469 3.04785L9.85254 2.87891C8.77315 2.02738 7.02569 1.9744 5.8623 2.71973L5.6377 2.87891L2.02637 5.73047L2.02539 5.72949C1.84587 5.87126 1.62295 5.93821 1.40625 5.93457C1.1894 5.93086 0.966765 5.85713 0.791992 5.70703C0.614347 5.55435 0.493621 5.32615 0.5 5.06641L0.508789 4.9707C0.540718 4.75275 0.660845 4.56755 0.820312 4.44141L4.43359 1.58984Z" stroke="white" stroke-opacity="0.2"/>
</svg>
