<svg width="19" height="19" viewBox="0 0 19 19" fill="none" xmlns="http://www.w3.org/2000/svg">
<path d="M10.4559 3.31616L15.6838 8.54411L5.74342 18.4845C5.39944 18.1404 5.20516 17.6745 5.20281 17.188C5.20046 16.7014 5.39023 16.2336 5.73087 15.8862L5.72774 15.8831C5.38568 16.2326 4.91877 16.432 4.42973 16.4373C3.9407 16.4426 3.46958 16.2534 3.12004 15.9113C2.77049 15.5693 2.57114 15.1024 2.56585 14.6133C2.56056 14.1243 2.74975 13.6532 3.09181 13.3036L3.08344 13.2953C2.73438 13.6234 2.27139 13.8029 1.79236 13.7959C1.31333 13.7889 0.855811 13.5959 0.516521 13.2576L10.4559 3.31616ZM18.3877 2.88329L16.1167 0.612269C15.7246 0.220233 15.1928 0 14.6382 0C14.0837 0 13.5519 0.220233 13.1598 0.612269L11.5015 2.27057L16.7294 7.49852L18.3877 5.84021C18.7798 5.44806 19 4.91626 19 4.36175C19 3.80725 18.7798 3.27544 18.3877 2.88329ZM0 15.8632V19H3.13677C3.13677 18.1681 2.80629 17.3702 2.21803 16.782C1.62977 16.1937 0.831922 15.8632 0 15.8632Z" fill="#4271A8"/>
</svg>
