<svg width="20" height="20" viewBox="0 0 20 20" fill="none" xmlns="http://www.w3.org/2000/svg">
<path d="M11.0062 3.4907L16.5093 8.9938L6.04571 19.4574C5.68362 19.0952 5.47912 18.6047 5.47664 18.0926C5.47417 17.5805 5.67393 17.088 6.0325 16.7224L6.0292 16.719C5.66913 17.087 5.17766 17.2968 4.66288 17.3024C4.1481 17.308 3.65219 17.1088 3.28425 16.7488C2.91631 16.3887 2.70647 15.8972 2.7009 15.3824C2.69532 14.8677 2.89447 14.3718 3.25453 14.0038L3.24573 13.995C2.8783 14.3404 2.39094 14.5294 1.8867 14.522C1.38246 14.5146 0.900853 14.3114 0.543706 13.9554L11.0062 3.4907ZM19.3555 3.03504L16.965 0.644493C16.5522 0.231825 15.9924 0 15.4087 0C14.825 0 14.2652 0.231825 13.8524 0.644493L12.1068 2.39008L17.6099 7.89318L19.3555 6.14759C19.7682 5.7348 20 5.17501 20 4.59132C20 4.00763 19.7682 3.44783 19.3555 3.03504ZM0 16.6981V20H3.30186C3.30186 19.1243 2.95399 18.2845 2.33477 17.6652C1.71555 17.046 0.875708 16.6981 0 16.6981Z" fill="#363744"/>
</svg>
