<svg width="33" height="67" viewBox="0 0 33 67" fill="none" xmlns="http://www.w3.org/2000/svg">
<path d="M31.8344 65.6491C29.703 65.6491 24.8343 65.2789 22.8669 64.5301C20.9825 63.8128 19.1298 62.48 17.3041 60.887C15.4853 59.3001 13.8909 57.1513 12.5349 55.2793C11.2676 53.5296 10.5255 51.172 9.9141 48.8765C9.35021 46.7592 8.9325 44.1606 8.55808 41.8188C8.20063 39.5831 8.09113 37.1492 7.94951 33.178C7.79795 28.9282 8.85262 10.4875 8.83435 1.95599M8.83435 1.95599C7.99016 3.82802 6.64145 7.47541 5.18561 9.56649C3.688 11.7176 2.18525 16.0301 0.517455 15.0241C0.429112 14.9709 0.689757 14.4975 0.988618 14.0383C2.20718 12.1663 3.6053 10.3721 5.38475 7.91321C6.97491 5.71584 8.87536 -0.9363 8.55808 0.780716M8.83435 1.95599C9.04233 1.49477 9.20736 1.02348 9.62664 1.75687C11.5463 7.26921 12.4775 12.0709 13.3216 14.5039C13.5095 15.069 13.6946 15.5318 14.1658 16.5694" stroke="#56595E" stroke-opacity="0.3" stroke-linecap="round"/>
</svg>
