<svg width="12" height="7" viewBox="0 0 12 7" fill="none" xmlns="http://www.w3.org/2000/svg">
<path d="M5.4481 6.41216L0.138095 0.83916C0.0494507 0.746172 0 0.622631 0 0.49416C0 0.36569 0.0494507 0.242149 0.138095 0.149161L0.144095 0.14316C0.187069 0.0979253 0.238795 0.0619058 0.296128 0.037292C0.353461 0.0126783 0.415202 -1.4782e-05 0.477595 -1.4782e-05C0.539989 -1.4782e-05 0.60173 0.0126783 0.659063 0.037292C0.716396 0.0619058 0.768122 0.0979253 0.811095 0.14316L5.8111 5.39116L10.8091 0.14316C10.8521 0.0979253 10.9038 0.0619058 10.9611 0.037292C11.0185 0.0126783 11.0802 -1.4782e-05 11.1426 -1.4782e-05C11.205 -1.4782e-05 11.2667 0.0126783 11.3241 0.037292C11.3814 0.0619058 11.4331 0.0979253 11.4761 0.14316L11.4821 0.149161C11.5707 0.242149 11.6202 0.36569 11.6202 0.49416C11.6202 0.622631 11.5707 0.746172 11.4821 0.83916L6.1721 6.41216C6.1254 6.46117 6.06923 6.50019 6.00701 6.52685C5.94478 6.55351 5.87779 6.56726 5.8101 6.56726C5.7424 6.56726 5.67541 6.55351 5.61318 6.52685C5.55096 6.50019 5.49479 6.46117 5.4481 6.41216Z" fill="black"/>
</svg>
