<svg width="29" height="30" viewBox="0 0 29 30" fill="none" xmlns="http://www.w3.org/2000/svg">
<path d="M15 4.0625C15.2486 4.0625 15.4871 4.16127 15.6629 4.33709C15.8387 4.5129 15.9375 4.75136 15.9375 5C15.9375 5.24864 15.8387 5.4871 15.6629 5.66291C15.4871 5.83873 15.2486 5.9375 15 5.9375C12.5965 5.9375 10.2914 6.8923 8.59185 8.59185C6.8923 10.2914 5.9375 12.5965 5.9375 15C5.9375 17.4035 6.8923 19.7086 8.59185 21.4082C10.2914 23.1077 12.5965 24.0625 15 24.0625C15.2486 24.0625 15.4871 24.1613 15.6629 24.3371C15.8387 24.5129 15.9375 24.7514 15.9375 25C15.9375 25.2486 15.8387 25.4871 15.6629 25.6629C15.4871 25.8387 15.2486 25.9375 15 25.9375C12.0992 25.9375 9.3172 24.7852 7.26602 22.734C5.21484 20.6828 4.0625 17.9008 4.0625 15C4.0625 12.0992 5.21484 9.3172 7.26602 7.26602C9.3172 5.21484 12.0992 4.0625 15 4.0625Z" fill="#9D2222"/>
<path d="M18.9209 11.9125C18.7553 11.7348 18.6651 11.4997 18.6694 11.2568C18.6737 11.014 18.7721 10.7822 18.9438 10.6105C19.1156 10.4387 19.3473 10.3403 19.5902 10.336C19.8331 10.3317 20.0682 10.4219 20.2459 10.5875L23.9959 14.3375C24.1714 14.5133 24.27 14.7516 24.27 15C24.27 15.2484 24.1714 15.4867 23.9959 15.6625L20.2459 19.4125C20.16 19.5046 20.0565 19.5785 19.9415 19.6297C19.8265 19.681 19.7024 19.7085 19.5765 19.7107C19.4506 19.713 19.3256 19.6898 19.2089 19.6426C19.0921 19.5955 18.9861 19.5253 18.8971 19.4363C18.8081 19.3473 18.7379 19.2412 18.6907 19.1245C18.6436 19.0078 18.6204 18.8827 18.6226 18.7568C18.6249 18.631 18.6524 18.5068 18.7036 18.3918C18.7549 18.2768 18.8288 18.1733 18.9209 18.0875L21.0709 15.9375H10.8334C10.5847 15.9375 10.3463 15.8387 10.1705 15.6629C9.99465 15.4871 9.89587 15.2486 9.89587 15C9.89587 14.7514 9.99465 14.5129 10.1705 14.3371C10.3463 14.1613 10.5847 14.0625 10.8334 14.0625H21.0709L18.9209 11.9125Z" fill="#9D2222"/>
</svg>
