<svg width="43" height="36" viewBox="0 0 43 36" fill="none" xmlns="http://www.w3.org/2000/svg">
<rect x="3" y="4" width="40" height="20" rx="10" fill="#DEEEFF"/>
<g opacity="0.99">
<path d="M13.0898 20.6667C16.7647 20.6667 19.7438 17.7006 19.7438 14.0417C19.7438 10.3828 16.7647 7.41667 13.0898 7.41667C9.41498 7.41667 6.43591 10.3828 6.43591 14.0417C6.43591 17.7006 9.41498 20.6667 13.0898 20.6667Z" fill="#5E646B"/>
<path d="M13.0899 3V4.10417M13.0899 23.9792V25.0833M24.1798 14.0417H23.0708M3.10899 14.0417H2M20.9304 6.23521L20.4957 6.66915M5.68406 21.4153L5.24823 21.8492M20.9304 21.8481L20.4957 21.4142M5.68406 6.66804L5.24823 6.2341" stroke="#050505" stroke-opacity="0.6" stroke-width="2" stroke-linecap="square"/>
</g>
</svg>
