<svg width="227" height="28" viewBox="0 0 227 28" fill="none" xmlns="http://www.w3.org/2000/svg">
<path d="M14.9998 28C23.284 28 29.9995 21.7321 29.9995 14C29.9995 6.26792 23.284 0 14.9998 0C6.71552 0 0 6.26792 0 14C0 21.7321 6.71552 28 14.9998 28Z" fill="#DEEEFF"/>
<path d="M11.7267 17.0543V19.5994C11.7267 19.7785 11.7617 19.9494 11.8223 20.1087C11.9351 20.4062 12.1438 20.6638 12.4198 20.8462C12.6957 21.0285 13.0254 21.1267 13.3635 21.1272H13.9091V21.6358C13.9091 21.917 14.1529 22.1451 14.4541 22.1451H15.5454C15.6901 22.1451 15.8289 22.0914 15.9312 21.9959C16.0335 21.9004 16.091 21.7709 16.091 21.6358V21.1272H16.636C17.3485 21.1272 17.9528 20.7013 18.1772 20.1087C18.2399 19.9452 18.272 19.773 18.2722 19.5994V17.0543H11.7267Z" fill="#6BAFFF"/>
<path d="M11.7267 17.0543H18.2722C20.0772 15.9664 21.5453 14.1178 21.5453 11.963C21.5453 8.589 18.6147 5.85433 14.9998 5.85433C11.3848 5.85433 8.45424 8.589 8.45424 11.963C8.45424 14.1178 9.81735 16.0358 11.7267 17.0543Z" fill="#0F60D9"/>
<path d="M18.2722 17.0543H11.7273V17.5636H18.2722V17.0543ZM18.2722 18.3272H11.7273V18.8358H18.2722V18.3272ZM14.9998 19.6H11.7273C11.7273 19.7785 11.7617 19.95 11.8223 20.1087H18.1772C18.2378 19.9494 18.2722 19.7785 18.2722 19.6H14.9998Z" fill="#6BAFFF"/>
<path d="M49.9 7.152V23H46.26V8.3L47.94 9.952H34.892L36.572 8.3V23H32.932V7.152H49.9ZM70.7919 23L70.1759 17.12L70.9039 15.076L70.1759 13.06L70.7919 7.152H74.5439L73.7039 15.076L74.5439 23H70.7919ZM71.9119 15.076C71.5573 16.7373 70.9693 18.1933 70.1479 19.444C69.3266 20.6947 68.3093 21.6653 67.0959 22.356C65.9013 23.0467 64.5666 23.392 63.0919 23.392C61.5426 23.392 60.1706 23.0467 58.9759 22.356C57.7813 21.6467 56.8479 20.6667 56.1759 19.416C55.5039 18.1653 55.1679 16.7187 55.1679 15.076C55.1679 13.4147 55.5039 11.968 56.1759 10.736C56.8479 9.48533 57.7813 8.51467 58.9759 7.824C60.1706 7.11467 61.5426 6.76 63.0919 6.76C64.5666 6.76 65.9013 7.10533 67.0959 7.796C68.3093 8.48667 69.3266 9.45733 70.1479 10.708C70.9879 11.94 71.5759 13.396 71.9119 15.076ZM58.8639 15.076C58.8639 16.14 59.0786 17.0827 59.5079 17.904C59.9559 18.7067 60.5626 19.3413 61.3279 19.808C62.0933 20.256 62.9706 20.48 63.9599 20.48C64.9679 20.48 65.9013 20.256 66.7599 19.808C67.6186 19.3413 68.3746 18.7067 69.0279 17.904C69.6999 17.0827 70.2319 16.14 70.6239 15.076C70.2319 14.012 69.6999 13.0787 69.0279 12.276C68.3746 11.4547 67.6186 10.82 66.7599 10.372C65.9013 9.90533 64.9679 9.672 63.9599 9.672C62.9706 9.672 62.0933 9.90533 61.3279 10.372C60.5626 10.82 59.9559 11.4547 59.5079 12.276C59.0786 13.0787 58.8639 14.012 58.8639 15.076ZM80.287 7.152H83.927V12.668L83.759 13.228V16.42L83.927 17.4V27.62H80.287V7.152ZM82.527 15.076C82.8817 13.396 83.4697 11.94 84.291 10.708C85.1123 9.45733 86.1203 8.48667 87.315 7.796C88.5283 7.10533 89.8723 6.76 91.347 6.76C92.8963 6.76 94.2683 7.11467 95.463 7.824C96.6577 8.51467 97.591 9.48533 98.263 10.736C98.935 11.968 99.271 13.4147 99.271 15.076C99.271 16.7187 98.935 18.1653 98.263 19.416C97.591 20.6667 96.6577 21.6467 95.463 22.356C94.2683 23.0467 92.8963 23.392 91.347 23.392C89.8723 23.392 88.5377 23.0467 87.343 22.356C86.1483 21.6653 85.131 20.6947 84.291 19.444C83.4697 18.1933 82.8817 16.7373 82.527 15.076ZM95.575 15.076C95.575 14.012 95.351 13.0787 94.903 12.276C94.4737 11.4547 93.8763 10.82 93.111 10.372C92.3457 9.90533 91.4683 9.672 90.479 9.672C89.4897 9.672 88.5563 9.90533 87.679 10.372C86.8203 10.82 86.0643 11.4547 85.411 12.276C84.7577 13.0787 84.2257 14.012 83.815 15.076C84.2257 16.14 84.7577 17.0827 85.411 17.904C86.0643 18.7067 86.8203 19.3413 87.679 19.808C88.5563 20.256 89.4897 20.48 90.479 20.48C91.4683 20.48 92.3457 20.256 93.111 19.808C93.8763 19.3413 94.4737 18.7067 94.903 17.904C95.351 17.0827 95.575 16.14 95.575 15.076ZM119.323 23L118.707 17.12L119.435 15.076L118.707 13.06L119.323 7.152H123.075L122.235 15.076L123.075 23H119.323ZM120.443 15.076C120.088 16.7373 119.5 18.1933 118.679 19.444C117.857 20.6947 116.84 21.6653 115.627 22.356C114.432 23.0467 113.097 23.392 111.623 23.392C110.073 23.392 108.701 23.0467 107.507 22.356C106.312 21.6467 105.379 20.6667 104.707 19.416C104.035 18.1653 103.699 16.7187 103.699 15.076C103.699 13.4147 104.035 11.968 104.707 10.736C105.379 9.48533 106.312 8.51467 107.507 7.824C108.701 7.11467 110.073 6.76 111.623 6.76C113.097 6.76 114.432 7.10533 115.627 7.796C116.84 8.48667 117.857 9.45733 118.679 10.708C119.519 11.94 120.107 13.396 120.443 15.076ZM107.395 15.076C107.395 16.14 107.609 17.0827 108.039 17.904C108.487 18.7067 109.093 19.3413 109.859 19.808C110.624 20.256 111.501 20.48 112.491 20.48C113.499 20.48 114.432 20.256 115.291 19.808C116.149 19.3413 116.905 18.7067 117.559 17.904C118.231 17.0827 118.763 16.14 119.155 15.076C118.763 14.012 118.231 13.0787 117.559 12.276C116.905 11.4547 116.149 10.82 115.291 10.372C114.432 9.90533 113.499 9.672 112.491 9.672C111.501 9.672 110.624 9.90533 109.859 10.372C109.093 10.82 108.487 11.4547 108.039 12.276C107.609 13.0787 107.395 14.012 107.395 15.076ZM141.334 7.152V10.008H130.778L132.458 8.328V23H128.818V7.152H141.334ZM145.878 7.152H149.518V12.668L149.35 13.228V16.42L149.518 17.4V27.62H145.878V7.152ZM148.118 15.076C148.473 13.396 149.061 11.94 149.882 10.708C150.703 9.45733 151.711 8.48667 152.906 7.796C154.119 7.10533 155.463 6.76 156.938 6.76C158.487 6.76 159.859 7.11467 161.054 7.824C162.249 8.51467 163.182 9.48533 163.854 10.736C164.526 11.968 164.862 13.4147 164.862 15.076C164.862 16.7187 164.526 18.1653 163.854 19.416C163.182 20.6667 162.249 21.6467 161.054 22.356C159.859 23.0467 158.487 23.392 156.938 23.392C155.463 23.392 154.129 23.0467 152.934 22.356C151.739 21.6653 150.722 20.6947 149.882 19.444C149.061 18.1933 148.473 16.7373 148.118 15.076ZM161.166 15.076C161.166 14.012 160.942 13.0787 160.494 12.276C160.065 11.4547 159.467 10.82 158.702 10.372C157.937 9.90533 157.059 9.672 156.07 9.672C155.081 9.672 154.147 9.90533 153.27 10.372C152.411 10.82 151.655 11.4547 151.002 12.276C150.349 13.0787 149.817 14.012 149.406 15.076C149.817 16.14 150.349 17.0827 151.002 17.904C151.655 18.7067 152.411 19.3413 153.27 19.808C154.147 20.256 155.081 20.48 156.07 20.48C157.059 20.48 157.937 20.256 158.702 19.808C159.467 19.3413 160.065 18.7067 160.494 17.904C160.942 17.0827 161.166 16.14 161.166 15.076ZM184.914 23L184.298 17.12L185.026 15.076L184.298 13.06L184.914 7.152H188.666L187.826 15.076L188.666 23H184.914ZM186.034 15.076C185.679 16.7373 185.091 18.1933 184.27 19.444C183.448 20.6947 182.431 21.6653 181.218 22.356C180.023 23.0467 178.688 23.392 177.214 23.392C175.664 23.392 174.292 23.0467 173.098 22.356C171.903 21.6467 170.97 20.6667 170.298 19.416C169.626 18.1653 169.29 16.7187 169.29 15.076C169.29 13.4147 169.626 11.968 170.298 10.736C170.97 9.48533 171.903 8.51467 173.098 7.824C174.292 7.11467 175.664 6.76 177.214 6.76C178.688 6.76 180.023 7.10533 181.218 7.796C182.431 8.48667 183.448 9.45733 184.27 10.708C185.11 11.94 185.698 13.396 186.034 15.076ZM172.986 15.076C172.986 16.14 173.2 17.0827 173.63 17.904C174.078 18.7067 174.684 19.3413 175.45 19.808C176.215 20.256 177.092 20.48 178.082 20.48C179.09 20.48 180.023 20.256 180.882 19.808C181.74 19.3413 182.496 18.7067 183.15 17.904C183.822 17.0827 184.354 16.14 184.746 15.076C184.354 14.012 183.822 13.0787 183.15 12.276C182.496 11.4547 181.74 10.82 180.882 10.372C180.023 9.90533 179.09 9.672 178.082 9.672C177.092 9.672 176.215 9.90533 175.45 10.372C174.684 10.82 174.078 11.4547 173.63 12.276C173.2 13.0787 172.986 14.012 172.986 15.076ZM208.437 27.62V18.212L208.773 16.924V13.06L208.437 11.744V1.44H212.021V11.772L211.685 13.06V16.896L212.021 18.212V27.62H208.437ZM210.621 15.076C210.976 13.396 211.545 11.94 212.329 10.708C213.113 9.45733 214.084 8.48667 215.241 7.796C216.417 7.10533 217.733 6.76 219.189 6.76C220.72 6.76 222.064 7.11467 223.221 7.824C224.378 8.51467 225.284 9.48533 225.937 10.736C226.59 11.968 226.917 13.4147 226.917 15.076C226.917 16.7187 226.59 18.1653 225.937 19.416C225.284 20.6667 224.378 21.6467 223.221 22.356C222.064 23.0467 220.72 23.392 219.189 23.392C217.733 23.392 216.417 23.0467 215.241 22.356C214.084 21.6653 213.113 20.6947 212.329 19.444C211.545 18.1933 210.976 16.7373 210.621 15.076ZM223.221 15.076C223.221 14.012 223.006 13.0787 222.577 12.276C222.166 11.4547 221.597 10.82 220.869 10.372C220.141 9.90533 219.292 9.672 218.321 9.672C216.846 9.672 215.549 10.176 214.429 11.184C213.309 12.1733 212.45 13.4707 211.853 15.076C212.45 16.6627 213.309 17.9693 214.429 18.996C215.549 20.004 216.846 20.508 218.321 20.508C219.292 20.508 220.141 20.2747 220.869 19.808C221.597 19.3413 222.166 18.7067 222.577 17.904C223.006 17.0827 223.221 16.14 223.221 15.076ZM209.837 15.076C209.501 16.7373 208.932 18.1933 208.129 19.444C207.345 20.6947 206.374 21.6653 205.217 22.356C204.06 23.0467 202.753 23.392 201.297 23.392C199.766 23.392 198.422 23.0467 197.265 22.356C196.108 21.6467 195.202 20.6667 194.549 19.416C193.896 18.1653 193.569 16.7187 193.569 15.076C193.569 13.4147 193.896 11.968 194.549 10.736C195.202 9.48533 196.108 8.51467 197.265 7.824C198.422 7.11467 199.766 6.76 201.297 6.76C202.753 6.76 204.06 7.10533 205.217 7.796C206.374 8.48667 207.345 9.45733 208.129 10.708C208.932 11.94 209.501 13.396 209.837 15.076ZM197.265 15.076C197.265 16.14 197.47 17.0827 197.881 17.904C198.292 18.7067 198.861 19.3413 199.589 19.808C200.336 20.2747 201.185 20.508 202.137 20.508C203.63 20.508 204.928 20.004 206.029 18.996C207.149 17.9693 208.017 16.6627 208.633 15.076C208.017 13.4707 207.149 12.1733 206.029 11.184C204.928 10.176 203.63 9.672 202.137 9.672C201.185 9.672 200.336 9.90533 199.589 10.372C198.861 10.82 198.292 11.4547 197.881 12.276C197.47 13.0787 197.265 14.012 197.265 15.076Z" fill="#292833"/>
</svg>
