<svg width="20" height="15" viewBox="0 0 20 15" fill="none" xmlns="http://www.w3.org/2000/svg">
<path d="M1 14.0001V1.00008L8.875 14.0001V1.00008M13.375 14.0001H19M13.375 4.90008C13.375 5.93443 13.6713 6.92641 14.1988 7.6578C14.7262 8.38919 15.4416 8.80008 16.1875 8.80008C16.9334 8.80008 17.6488 8.38919 18.1762 7.6578C18.7037 6.92641 19 5.93443 19 4.90008C19 3.86574 18.7037 2.87376 18.1762 2.14237C17.6488 1.41098 16.9334 1.00008 16.1875 1.00008C15.4416 1.00008 14.7262 1.41098 14.1988 2.14237C13.6713 2.87376 13.375 3.86574 13.375 4.90008Z" stroke="#202226" stroke-width="2" stroke-linecap="round" stroke-linejoin="round"/>
</svg>
