<svg width="29" height="29" viewBox="0 0 29 29" fill="none" xmlns="http://www.w3.org/2000/svg">
<path d="M14.4395 21.75C14.8625 21.75 15.2201 21.6038 15.5125 21.3114C15.805 21.019 15.9508 20.6617 15.95 20.2396C15.9492 19.8175 15.8033 19.4598 15.5125 19.1666C15.2217 18.8734 14.8641 18.7276 14.4395 18.7292C14.015 18.7308 13.6578 18.877 13.3678 19.1678C13.0778 19.4586 12.9315 19.8159 12.9291 20.2396C12.9267 20.6633 13.0729 21.021 13.3678 21.3126C13.6626 21.6042 14.0198 21.75 14.4395 21.75ZM13.352 17.0979H15.5875C15.5875 16.4333 15.6632 15.9097 15.8146 15.5271C15.9661 15.1444 16.3938 14.6208 17.0979 13.9562C17.6215 13.4326 18.0343 12.934 18.3364 12.4603C18.6385 11.9867 18.7895 11.4179 18.7895 10.7542C18.7895 9.62638 18.3767 8.76041 17.551 8.15625C16.7253 7.55208 15.7486 7.25 14.6208 7.25C13.4729 7.25 12.5417 7.55208 11.8271 8.15625C11.1126 8.76041 10.614 9.48541 10.3312 10.3312L12.325 11.1167C12.4257 10.7542 12.6524 10.3615 13.0053 9.93854C13.3581 9.51562 13.8966 9.30416 14.6208 9.30416C15.2652 9.30416 15.7486 9.48058 16.0708 9.83341C16.393 10.1862 16.5541 10.5737 16.5541 10.9958C16.5541 11.3986 16.4333 11.7764 16.1916 12.1292C15.95 12.4821 15.6479 12.8091 15.2854 13.1104C14.3993 13.8958 13.8555 14.4899 13.6541 14.8927C13.4527 15.2955 13.352 16.0306 13.352 17.0979ZM14.5 26.5833C12.8284 26.5833 11.2576 26.2663 9.78746 25.6324C8.31732 24.9984 7.0385 24.1373 5.951 23.049C4.8635 21.9607 4.00277 20.6818 3.36879 19.2125C2.73482 17.7432 2.41743 16.1723 2.41663 14.5C2.41582 12.8277 2.73321 11.2568 3.36879 9.7875C4.00438 8.31816 4.86511 7.03934 5.951 5.95104C7.03689 4.86273 8.31571 4.002 9.78746 3.36883C11.2592 2.73566 12.83 2.41827 14.5 2.41666C16.1699 2.41505 17.7407 2.73244 19.2125 3.36883C20.6842 4.00522 21.963 4.86595 23.0489 5.95104C24.1348 7.03612 24.9959 8.31494 25.6323 9.7875C26.2687 11.2601 26.5857 12.8309 26.5833 14.5C26.5809 16.1691 26.2635 17.7399 25.6311 19.2125C24.9988 20.6851 24.138 21.9639 23.0489 23.049C21.9598 24.134 20.681 24.9952 19.2125 25.6324C17.7439 26.2696 16.1731 26.5866 14.5 26.5833Z" fill="#363744"/>
</svg>
