<svg width="28" height="28" viewBox="0 0 28 28" fill="none" xmlns="http://www.w3.org/2000/svg">
<path d="M9.33337 17.5H18.6667V16.8583C18.6667 15.9833 18.2389 15.2884 17.3834 14.7735C16.5278 14.2586 15.4 14.0008 14 14C12.6 13.9992 11.4723 14.2571 10.6167 14.7735C9.76115 15.2899 9.33337 15.9849 9.33337 16.8583V17.5ZM14 12.8333C14.6417 12.8333 15.1912 12.6051 15.6485 12.1485C16.1059 11.6919 16.3342 11.1424 16.3334 10.5C16.3326 9.85756 16.1043 9.30844 15.6485 8.85267C15.1928 8.39689 14.6433 8.16822 14 8.16667C13.3568 8.16511 12.8077 8.39378 12.3527 8.85267C11.8977 9.31156 11.669 9.86067 11.6667 10.5C11.6644 11.1393 11.893 11.6888 12.3527 12.1485C12.8124 12.6082 13.3615 12.8364 14 12.8333ZM9.33337 24.5V22.1667H4.66671C4.02504 22.1667 3.47593 21.9384 3.01937 21.4818C2.56282 21.0253 2.33415 20.4758 2.33337 19.8333V5.83333C2.33337 5.19167 2.56204 4.64256 3.01937 4.186C3.47671 3.72944 4.02582 3.50078 4.66671 3.5H23.3334C23.975 3.5 24.5245 3.72867 24.9819 4.186C25.4392 4.64333 25.6675 5.19244 25.6667 5.83333V19.8333C25.6667 20.475 25.4384 21.0245 24.9819 21.4818C24.5253 21.9392 23.9758 22.1674 23.3334 22.1667H18.6667V24.5H9.33337Z" fill="#363744"/>
</svg>
