<svg width="87" height="26" viewBox="0 0 87 26" fill="none" xmlns="http://www.w3.org/2000/svg">
<rect x="0.5" y="0.5" width="86" height="25" rx="12.5" fill="white"/>
<rect x="0.5" y="0.5" width="86" height="25" rx="12.5" stroke="#292833"/>
<path d="M5.112 17V8.36H6.288V12.112H11.16V8.36H12.336V17H11.16V13.24H6.288V17H5.112ZM19.5091 17.24C18.6665 17.24 17.9358 17.0533 17.3171 16.68C16.7038 16.3067 16.2265 15.7813 15.8851 15.104C15.5438 14.4267 15.3731 13.632 15.3731 12.72C15.3731 11.776 15.5411 10.96 15.8771 10.272C16.2131 9.584 16.6851 9.05333 17.2931 8.68C17.9065 8.30667 18.6291 8.12 19.4611 8.12C20.3145 8.12 21.0425 8.31733 21.6451 8.712C22.2478 9.10133 22.7038 9.66133 23.0131 10.392C23.3225 11.1227 23.4638 11.9947 23.4371 13.008H22.2371V12.592C22.2158 11.472 21.9731 10.6267 21.5091 10.056C21.0505 9.48533 20.3785 9.2 19.4931 9.2C18.5651 9.2 17.8531 9.50133 17.3571 10.104C16.8665 10.7067 16.6211 11.5653 16.6211 12.68C16.6211 13.768 16.8665 14.6133 17.3571 15.216C17.8531 15.8133 18.5545 16.112 19.4611 16.112C20.0798 16.112 20.6185 15.9707 21.0771 15.688C21.5411 15.4 21.9065 14.9867 22.1731 14.448L23.2691 14.872C22.9278 15.624 22.4238 16.208 21.7571 16.624C21.0958 17.0347 20.3465 17.24 19.5091 17.24ZM16.2051 13.008V12.024H22.8051V13.008H16.2051ZM25.8525 18.92V15.992C26.3432 15.992 26.6952 15.8347 26.9085 15.52C27.1218 15.2 27.2952 14.6907 27.4285 13.992C27.5192 13.5387 27.5938 13.0507 27.6525 12.528C27.7112 12.0053 27.7618 11.408 27.8045 10.736C27.8472 10.0587 27.8872 9.26667 27.9245 8.36H33.6365V15.992H34.4685V18.92H33.3325V17H26.9805V18.92H25.8525ZM27.8445 15.992H32.4685V9.368H29.0125C28.9965 9.77333 28.9725 10.2027 28.9405 10.656C28.9138 11.1093 28.8792 11.5627 28.8365 12.016C28.7992 12.4693 28.7538 12.896 28.7005 13.296C28.6525 13.6907 28.5938 14.0373 28.5245 14.336C28.4445 14.72 28.3565 15.048 28.2605 15.32C28.1698 15.592 28.0312 15.816 27.8445 15.992ZM41.0066 17.24C40.164 17.24 39.4333 17.0533 38.8146 16.68C38.2013 16.3067 37.724 15.7813 37.3826 15.104C37.0413 14.4267 36.8706 13.632 36.8706 12.72C36.8706 11.776 37.0386 10.96 37.3746 10.272C37.7106 9.584 38.1826 9.05333 38.7906 8.68C39.404 8.30667 40.1266 8.12 40.9586 8.12C41.812 8.12 42.54 8.31733 43.1426 8.712C43.7453 9.10133 44.2013 9.66133 44.5106 10.392C44.82 11.1227 44.9613 11.9947 44.9346 13.008H43.7346V12.592C43.7133 11.472 43.4706 10.6267 43.0066 10.056C42.548 9.48533 41.876 9.2 40.9906 9.2C40.0626 9.2 39.3506 9.50133 38.8546 10.104C38.364 10.7067 38.1186 11.5653 38.1186 12.68C38.1186 13.768 38.364 14.6133 38.8546 15.216C39.3506 15.8133 40.052 16.112 40.9586 16.112C41.5773 16.112 42.116 15.9707 42.5746 15.688C43.0386 15.4 43.404 14.9867 43.6706 14.448L44.7666 14.872C44.4253 15.624 43.9213 16.208 43.2546 16.624C42.5933 17.0347 41.844 17.24 41.0066 17.24ZM37.7026 13.008V12.024H44.3026V13.008H37.7026ZM47.19 17V15.968C47.51 16.0267 47.7527 16.0133 47.918 15.928C48.0887 15.8373 48.214 15.688 48.294 15.48C48.374 15.2667 48.4407 15.0027 48.494 14.688C48.5793 14.1653 48.6567 13.5893 48.726 12.96C48.7953 12.3307 48.8567 11.6373 48.91 10.88C48.9687 10.1173 49.0273 9.27733 49.086 8.36H54.958V17H53.79V9.488H50.174C50.1367 10.0533 50.094 10.616 50.046 11.176C49.998 11.736 49.9473 12.2747 49.894 12.792C49.846 13.304 49.7927 13.776 49.734 14.208C49.6753 14.64 49.614 15.0133 49.55 15.328C49.454 15.8027 49.326 16.1813 49.166 16.464C49.0113 16.7467 48.7793 16.9333 48.47 17.024C48.1607 17.1147 47.734 17.1067 47.19 17ZM63.8891 17V13.744H61.8731C61.6385 13.744 61.3958 13.736 61.1451 13.72C60.8998 13.6987 60.6705 13.6693 60.4571 13.632C59.8491 13.5147 59.3318 13.248 58.9051 12.832C58.4838 12.4107 58.2731 11.8293 58.2731 11.088C58.2731 10.3627 58.4705 9.78133 58.8651 9.344C59.2598 8.90133 59.7371 8.61333 60.2971 8.48C60.5531 8.42133 60.8118 8.38667 61.0731 8.376C61.3398 8.36533 61.5691 8.36 61.7611 8.36H65.0651L65.0731 17H63.8891ZM57.9931 17L60.4011 13.376H61.7051L59.2811 17H57.9931ZM61.8091 12.736H63.8891V9.368H61.8091C61.6811 9.368 61.5025 9.37333 61.2731 9.384C61.0438 9.39467 60.8278 9.42933 60.6251 9.488C60.4491 9.54133 60.2731 9.63467 60.0971 9.768C59.9265 9.896 59.7825 10.0693 59.6651 10.288C59.5478 10.5013 59.4891 10.7627 59.4891 11.072C59.4891 11.504 59.6065 11.8507 59.8411 12.112C60.0811 12.368 60.3798 12.544 60.7371 12.64C60.9291 12.6827 61.1211 12.7093 61.3131 12.72C61.5051 12.7307 61.6705 12.736 61.8091 12.736Z" fill="#292833"/>
<path d="M82 9L76.5 17L71 9" stroke="#292833" stroke-opacity="0.72"/>
</svg>
